<svg width="243" height="261" viewBox="0 0 243 261" fill="none" xmlns="http://www.w3.org/2000/svg">
<path d="M32.1018 106.207C25.4092 98.8489 25.9486 87.4586 33.3067 80.766L84.3763 34.3147C91.7343 27.6221 103.125 28.1615 109.817 35.5195C116.51 42.8776 115.97 54.2679 108.612 60.9605L57.5428 107.412C50.1848 114.104 38.7945 113.565 32.1018 106.207Z" fill="#007C5F"/>
<path fill-rule="evenodd" clip-rule="evenodd" d="M112.335 65.0527C119.59 58.4537 121.773 48.3607 118.654 39.6716L114.095 43.8048C115.412 49.8816 113.543 56.4758 108.613 60.9606L57.5429 107.412C52.628 111.882 45.9139 113.126 40.0025 111.266L35.4027 115.397C43.7577 119.323 54.0106 118.102 61.265 111.504L112.335 65.0527Z" fill="#007C5F"/>
<path d="M80.6543 30.2227L29.5847 76.6739C19.9667 85.4222 19.2616 100.311 28.0098 109.929C30.1597 112.293 32.6805 114.118 35.4027 115.397L40.0025 111.266C37.0641 110.341 34.3241 108.65 32.102 106.207C25.4093 98.849 25.9488 87.4587 33.3068 80.766L84.3764 34.3148C91.7344 27.6222 103.125 28.1616 109.817 35.5196C112.025 37.947 113.446 40.8132 114.095 43.8048L118.654 39.6716C117.637 36.8416 116.059 34.1605 113.91 31.7975C105.161 22.1795 90.2724 21.4744 80.6543 30.2227Z" fill="#007C5F"/>
<path d="M19.9322 153.798C13.2395 146.44 13.779 135.049 21.137 128.357L140.342 19.9322C147.7 13.2396 159.09 13.779 165.783 21.1371C172.475 28.4951 171.936 39.8854 164.578 46.578L45.3731 155.003C38.0151 161.695 26.6248 161.156 19.9322 153.798Z" fill="#007C5F"/>
<path fill-rule="evenodd" clip-rule="evenodd" d="M17.415 124.265L136.62 15.8402C146.238 7.09188 161.127 7.79702 169.875 17.4151C178.623 27.0331 177.918 41.922 168.3 50.6703L49.0953 159.095C39.4772 167.843 24.5884 167.138 15.8401 157.52C7.09188 147.902 7.79698 133.013 17.415 124.265ZM21.1371 128.357C13.7791 135.049 13.2397 146.44 19.9323 153.798C26.6249 161.156 38.0152 161.695 45.3732 155.003L164.578 46.5781C171.936 39.8855 172.475 28.4952 165.783 21.1372C159.09 13.7791 147.7 13.2397 140.342 19.9323L21.1371 128.357Z" fill="#007C5F"/>
<path d="M28.3517 191.511C21.6591 184.153 22.1985 172.762 29.5565 166.07L173.109 35.4993C180.467 28.8066 191.857 29.3461 198.55 36.7041C205.242 44.0621 204.703 55.4524 197.345 62.1451L53.7927 192.715C46.4346 199.408 35.0443 198.869 28.3517 191.511Z" fill="#007C5F"/>
<path fill-rule="evenodd" clip-rule="evenodd" d="M25.8346 161.978L169.387 31.4072C179.005 22.6589 193.894 23.364 202.642 32.9821C211.39 42.6001 210.685 57.489 201.067 66.2373L57.5149 196.808C47.8968 205.556 33.008 204.851 24.2597 195.233C15.5114 185.615 16.2165 170.726 25.8346 161.978ZM29.5567 166.07C22.1986 172.762 21.6592 184.153 28.3518 191.511C35.0445 198.869 46.4348 199.408 53.7928 192.716L197.345 62.1451C204.703 55.4525 205.243 44.0622 198.55 36.7042C191.857 29.3461 180.467 28.8067 173.109 35.4993L29.5567 166.07Z" fill="#007C5F"/>
<path d="M42.6493 228.01C35.9567 220.652 36.4961 209.262 43.8541 202.569L189.933 69.7013C197.291 63.0087 208.681 63.5481 215.374 70.9062C222.066 78.2642 221.527 89.6545 214.169 96.3471L68.0903 229.215C60.7322 235.908 49.3419 235.368 42.6493 228.01Z" fill="#007C5F"/>
<path fill-rule="evenodd" clip-rule="evenodd" d="M40.1322 198.477L186.211 65.6091C195.829 56.8609 210.718 57.566 219.466 67.184C228.214 76.8021 227.509 91.6909 217.891 100.439L71.8125 233.307C62.1944 242.056 47.3056 241.35 38.5573 231.732C29.809 222.114 30.5141 207.226 40.1322 198.477ZM43.8543 202.569C36.4962 209.262 35.9568 220.652 42.6495 228.01C49.3421 235.368 60.7324 235.908 68.0904 229.215L214.169 96.3471C221.527 89.6544 222.066 78.2641 215.374 70.9061C208.681 63.5481 197.291 63.0086 189.933 69.7013L43.8543 202.569Z" fill="#007C5F"/>
<path d="M82.9933 239.834C76.3007 232.476 76.8401 221.086 84.1981 214.393L197.038 111.758C204.396 105.065 215.786 105.605 222.479 112.963C229.171 120.321 228.632 131.711 221.274 138.404L108.434 241.039C101.076 247.732 89.6859 247.192 82.9933 239.834Z" fill="#007C5F"/>
<path fill-rule="evenodd" clip-rule="evenodd" d="M80.4762 210.301L193.316 107.666C202.934 98.9178 217.823 99.6229 226.571 109.241C235.319 118.859 234.614 133.748 224.996 142.496L112.156 245.131C102.538 253.88 87.6496 253.174 78.9013 243.556C70.153 233.938 70.8581 219.049 80.4762 210.301ZM84.1983 214.393C76.8402 221.086 76.3008 232.476 82.9934 239.834C89.6861 247.192 101.076 247.732 108.434 241.039L221.274 138.404C228.632 131.711 229.171 120.321 222.479 112.963C215.786 105.605 204.396 105.066 197.038 111.758L84.1983 214.393Z" fill="#007C5F"/>
<path d="M130.566 235.658C123.873 228.3 124.412 216.909 131.771 210.217L185.283 161.543C192.641 154.851 204.032 155.39 210.724 162.748C217.417 170.106 216.878 181.496 209.52 188.189L156.007 236.863C148.649 243.555 137.258 243.016 130.566 235.658Z" fill="#007C5F"/>
<path fill-rule="evenodd" clip-rule="evenodd" d="M128.049 206.125L181.561 157.451C191.179 148.703 206.068 149.408 214.817 159.026C223.565 168.644 222.86 183.533 213.242 192.281L159.729 240.955C150.111 249.703 135.222 248.998 126.474 239.38C117.725 229.762 118.431 214.873 128.049 206.125ZM131.771 210.217C124.413 216.909 123.873 228.3 130.566 235.658C137.258 243.016 148.649 243.555 156.007 236.863L209.52 188.189C216.878 181.496 217.417 170.106 210.724 162.748C204.032 155.39 192.642 154.851 185.284 161.543L131.771 210.217Z" fill="#007C5F"/>
<path d="M34.0164 101.999C27.9671 95.3481 28.4547 85.0526 35.1055 79.0032L81.2665 37.0167C87.9173 30.9673 98.2129 31.4549 104.262 38.1057C110.312 44.7565 109.824 55.052 103.173 61.1014L57.0122 103.088C50.3613 109.137 40.0658 108.65 34.0164 101.999Z" fill="#E4FF37"/>
<path fill-rule="evenodd" clip-rule="evenodd" d="M106.538 64.8001C113.095 58.8353 115.069 49.7124 112.249 41.8585L108.128 45.5944C109.319 51.0872 107.63 57.0476 103.173 61.1013L57.0122 103.088C52.5696 107.129 46.5008 108.253 41.1576 106.572L37 110.306C44.5519 113.854 53.8194 112.751 60.3765 106.787L106.538 64.8001Z" fill="white"/>
<path d="M77.9022 33.3177L31.7412 75.3043C23.0476 83.2117 22.4102 96.6695 30.3177 105.363C32.2609 107.5 34.5394 109.15 37 110.306L41.1576 106.572C38.5017 105.736 36.025 104.207 34.0165 101.999C27.9671 95.348 28.4547 85.0525 35.1055 79.0031L81.2665 37.0166C87.9174 30.9672 98.2129 31.4548 104.262 38.1056C106.258 40.2996 107.542 42.8904 108.128 45.5944L112.249 41.8585C111.331 39.3005 109.904 36.8771 107.961 34.7412C100.054 26.0476 86.5958 25.4103 77.9022 33.3177Z" fill="white"/>
<path d="M23.0164 145.016C16.9671 138.365 17.4547 128.069 24.1055 122.02L131.853 24.0165C138.503 17.9672 148.799 18.4548 154.848 25.1056C160.898 31.7564 160.41 42.0519 153.759 48.1013L46.0121 146.105C39.3613 152.154 29.0658 151.666 23.0164 145.016Z" fill="#E4FF37"/>
<path fill-rule="evenodd" clip-rule="evenodd" d="M20.7412 118.321L128.488 20.3176C137.182 12.4102 150.64 13.0475 158.547 21.7411C166.455 30.4348 165.817 43.8926 157.124 51.8L49.3765 149.803C40.6829 157.711 27.2251 157.073 19.3177 148.38C11.4102 139.686 12.0476 126.228 20.7412 118.321ZM24.1055 122.02C17.4547 128.069 16.9671 138.365 23.0165 145.015C29.0658 151.666 39.3614 152.154 46.0122 146.104L153.759 48.1012C160.41 42.0518 160.898 31.7563 154.848 25.1055C148.799 18.4547 138.503 17.9671 131.853 24.0164L24.1055 122.02Z" fill="white"/>
<path d="M30.6268 179.104C24.5774 172.453 25.065 162.157 31.7158 156.108L161.47 38.0874C168.121 32.038 178.417 32.5256 184.466 39.1764C190.516 45.8272 190.028 56.1227 183.377 62.1721L53.6225 180.193C46.9717 186.242 36.6762 185.754 30.6268 179.104Z" fill="#E4FF37"/>
<path fill-rule="evenodd" clip-rule="evenodd" d="M28.3515 152.409L158.106 34.3885C166.8 26.481 180.258 27.1184 188.165 35.812C196.072 44.5056 195.435 57.9634 186.742 65.8708L56.9869 183.891C48.2932 191.799 34.8354 191.161 26.928 182.468C19.0206 173.774 19.6579 160.316 28.3515 152.409ZM31.7159 156.108C25.0651 162.157 24.5775 172.453 30.6268 179.104C36.6762 185.754 46.9717 186.242 53.6225 180.193L183.377 62.172C190.028 56.1226 190.516 45.8271 184.466 39.1763C178.417 32.5255 168.121 32.0379 161.471 38.0873L31.7159 156.108Z" fill="white"/>
<path d="M43.5501 212.095C37.5008 205.444 37.9883 195.149 44.6392 189.099L176.677 69.002C183.328 62.9526 193.624 63.4402 199.673 70.091C205.722 76.7418 205.235 87.0373 198.584 93.0867L66.5458 213.184C59.895 219.233 49.5995 218.746 43.5501 212.095Z" fill="#E4FF37"/>
<path fill-rule="evenodd" clip-rule="evenodd" d="M41.2749 185.4L173.313 65.303C182.007 57.3956 195.464 58.033 203.372 66.7266C211.279 75.4202 210.642 88.878 201.948 96.7854L69.9102 216.883C61.2166 224.79 47.7588 224.153 39.8514 215.459C31.9439 206.766 32.5813 193.308 41.2749 185.4ZM44.6392 189.099C37.9884 195.149 37.5008 205.444 43.5502 212.095C49.5995 218.746 59.895 219.233 66.5459 213.184L198.584 93.0866C205.235 87.0372 205.722 76.7417 199.673 70.0909C193.624 63.4401 183.328 62.9525 176.677 69.0019L44.6392 189.099Z" fill="white"/>
<path d="M80.0164 222.783C73.9671 216.132 74.4547 205.836 81.1055 199.787L183.099 107.017C189.75 100.967 200.046 101.455 206.095 108.106C212.144 114.756 211.657 125.052 205.006 131.101L103.012 223.872C96.3613 229.921 86.0658 229.433 80.0164 222.783Z" fill="#E4FF37"/>
<path fill-rule="evenodd" clip-rule="evenodd" d="M77.7412 196.088L179.735 103.318C188.429 95.4102 201.887 96.0475 209.794 104.741C217.701 113.435 217.064 126.893 208.37 134.8L106.377 227.57C97.6829 235.478 84.2251 234.84 76.3177 226.147C68.4102 217.453 69.0476 203.995 77.7412 196.088ZM81.1055 199.787C74.4547 205.836 73.9671 216.132 80.0165 222.782C86.0658 229.433 96.3614 229.921 103.012 223.872L205.006 131.101C211.657 125.052 212.145 114.756 206.095 108.105C200.046 101.455 189.75 100.967 183.099 107.016L81.1055 199.787Z" fill="white"/>
<path d="M123.016 219.007C116.967 212.357 117.455 202.061 124.105 196.012L172.475 152.017C179.126 145.967 189.421 146.455 195.471 153.106C201.52 159.756 201.032 170.052 194.382 176.101L146.012 220.096C139.361 226.146 129.066 225.658 123.016 219.007Z" fill="#E4FF37"/>
<path fill-rule="evenodd" clip-rule="evenodd" d="M120.741 192.313L169.111 148.318C177.804 140.41 191.262 141.047 199.169 149.741C207.077 158.435 206.44 171.893 197.746 179.8L149.377 223.795C140.683 231.703 127.225 231.065 119.318 222.372C111.41 213.678 112.048 200.22 120.741 192.313ZM124.106 196.012C117.455 202.061 116.967 212.357 123.016 219.007C129.066 225.658 139.361 226.146 146.012 220.096L194.382 176.101C201.032 170.052 201.52 159.756 195.471 153.105C189.421 146.455 179.126 145.967 172.475 152.016L124.106 196.012Z" fill="white"/>
</svg>
