<svg width="243" height="261" viewBox="0 0 243 261" fill="none" xmlns="http://www.w3.org/2000/svg">
<path d="M32.1018 106.207C25.4092 98.8489 25.9486 87.4586 33.3067 80.766L84.3763 34.3147C91.7343 27.6221 103.125 28.1615 109.817 35.5195C116.51 42.8776 115.97 54.2679 108.612 60.9605L57.5428 107.412C50.1848 114.104 38.7945 113.565 32.1018 106.207Z" fill="#007C5F"/>
<path fill-rule="evenodd" clip-rule="evenodd" d="M112.335 65.0526C119.59 58.4536 121.773 48.3606 118.654 39.6715L114.095 43.8047C115.412 49.8815 113.543 56.4757 108.613 60.9604L57.5429 107.412C52.628 111.882 45.9139 113.126 40.0025 111.266L35.4027 115.397C43.7577 119.323 54.0106 118.102 61.265 111.504L112.335 65.0526Z" fill="#007C5F"/>
<path d="M80.6543 30.2225L29.5847 76.6738C19.9667 85.422 19.2616 100.311 28.0098 109.929C30.1597 112.293 32.6805 114.118 35.4027 115.397L40.0025 111.266C37.0641 110.341 34.3241 108.65 32.102 106.207C25.4093 98.8488 25.9488 87.4585 33.3068 80.7659L84.3764 34.3147C91.7344 27.622 103.125 28.1615 109.817 35.5195C112.025 37.9469 113.446 40.8131 114.095 43.8047L118.654 39.6715C117.637 36.8415 116.059 34.1604 113.91 31.7974C105.161 22.1793 90.2724 21.4743 80.6543 30.2225Z" fill="#007C5F"/>
<path d="M19.9322 153.798C13.2395 146.44 13.779 135.049 21.137 128.357L140.342 19.9322C147.7 13.2396 159.09 13.779 165.783 21.1371V21.1371C172.475 28.4951 171.936 39.8854 164.578 46.578L45.3731 155.003C38.0151 161.695 26.6248 161.156 19.9322 153.798V153.798Z" fill="#007C5F"/>
<path fill-rule="evenodd" clip-rule="evenodd" d="M17.415 124.265L136.62 15.84C146.238 7.09176 161.127 7.7969 169.875 17.4149C178.623 27.033 177.918 41.9219 168.3 50.6701L49.0953 159.095C39.4772 167.843 24.5884 167.138 15.8401 157.52C7.09188 147.902 7.79698 133.013 17.415 124.265ZM21.1371 128.357C13.7791 135.049 13.2397 146.44 19.9323 153.798C26.6249 161.156 38.0152 161.695 45.3732 155.003L164.578 46.578C171.936 39.8854 172.475 28.4951 165.783 21.137C159.09 13.779 147.7 13.2396 140.342 19.9322L21.1371 128.357Z" fill="#007C5F"/>
<path d="M28.3517 191.511C21.6591 184.153 22.1985 172.762 29.5565 166.07L173.109 35.4993C180.467 28.8066 191.857 29.3461 198.55 36.7041V36.7041C205.242 44.0621 204.703 55.4524 197.345 62.1451L53.7927 192.715C46.4346 199.408 35.0443 198.869 28.3517 191.511V191.511Z" fill="#007C5F"/>
<path fill-rule="evenodd" clip-rule="evenodd" d="M25.8346 161.978L169.387 31.4073C179.005 22.659 193.894 23.3641 202.642 32.9822C211.39 42.6003 210.685 57.4891 201.067 66.2374L57.5149 196.808C47.8968 205.556 33.008 204.851 24.2597 195.233C15.5114 185.615 16.2165 170.726 25.8346 161.978ZM29.5567 166.07C22.1986 172.762 21.6592 184.153 28.3518 191.511C35.0445 198.869 46.4348 199.408 53.7928 192.716L197.345 62.1452C204.703 55.4526 205.243 44.0623 198.55 36.7043C191.857 29.3462 180.467 28.8068 173.109 35.4994L29.5567 166.07Z" fill="#007C5F"/>
<path d="M42.6493 228.01C35.9567 220.652 36.4961 209.262 43.8541 202.569L189.933 69.7013C197.291 63.0087 208.681 63.5481 215.374 70.9062V70.9062C222.066 78.2642 221.527 89.6545 214.169 96.3471L68.0903 229.215C60.7322 235.908 49.3419 235.368 42.6493 228.01V228.01Z" fill="#007C5F"/>
<path fill-rule="evenodd" clip-rule="evenodd" d="M40.1322 198.477L186.211 65.6091C195.829 56.8608 210.718 57.566 219.466 67.184C228.214 76.8021 227.509 91.6909 217.891 100.439L71.8125 233.307C62.1944 242.056 47.3056 241.35 38.5573 231.732C29.809 222.114 30.5141 207.226 40.1322 198.477ZM43.8543 202.569C36.4962 209.262 35.9568 220.652 42.6494 228.01C49.3421 235.368 60.7324 235.908 68.0904 229.215L214.169 96.3471C221.527 89.6544 222.066 78.2641 215.374 70.9061C208.681 63.5481 197.291 63.0086 189.933 69.7013L43.8543 202.569Z" fill="#007C5F"/>
<path d="M82.9933 239.834C76.3007 232.476 76.8401 221.086 84.1981 214.393L197.038 111.758C204.396 105.066 215.786 105.605 222.479 112.963V112.963C229.171 120.321 228.632 131.711 221.274 138.404L108.434 241.039C101.076 247.732 89.6859 247.192 82.9933 239.834V239.834Z" fill="#007C5F"/>
<path fill-rule="evenodd" clip-rule="evenodd" d="M80.4762 210.301L193.316 107.666C202.934 98.9178 217.823 99.6229 226.571 109.241C235.319 118.859 234.614 133.748 224.996 142.496L112.156 245.131C102.538 253.88 87.6496 253.174 78.9013 243.556C70.153 233.938 70.8581 219.049 80.4762 210.301ZM84.1983 214.393C76.8402 221.086 76.3008 232.476 82.9934 239.834C89.6861 247.192 101.076 247.732 108.434 241.039L221.274 138.404C228.632 131.711 229.171 120.321 222.479 112.963C215.786 105.605 204.396 105.066 197.038 111.758L84.1983 214.393Z" fill="#007C5F"/>
<path d="M130.566 235.658C123.873 228.3 124.412 216.909 131.771 210.217L185.283 161.543C192.641 154.851 204.032 155.39 210.724 162.748V162.748C217.417 170.106 216.878 181.496 209.52 188.189L156.007 236.862C148.649 243.555 137.258 243.016 130.566 235.658V235.658Z" fill="#007C5F"/>
<path fill-rule="evenodd" clip-rule="evenodd" d="M128.049 206.125L181.561 157.451C191.179 148.703 206.068 149.408 214.817 159.026C223.565 168.644 222.86 183.533 213.242 192.281L159.729 240.955C150.111 249.703 135.222 248.998 126.474 239.38C117.725 229.762 118.431 214.873 128.049 206.125ZM131.771 210.217C124.413 216.909 123.873 228.3 130.566 235.658C137.258 243.016 148.649 243.555 156.007 236.863L209.52 188.189C216.878 181.496 217.417 170.106 210.724 162.748C204.032 155.39 192.642 154.851 185.284 161.543L131.771 210.217Z" fill="#007C5F"/>
<path d="M80.9301 36.6468L34.769 78.6333C27.9139 84.8685 27.4114 95.4802 33.6466 102.335C39.8817 109.19 50.4935 109.693 57.3486 103.458L103.51 61.4712C110.365 55.2361 110.867 44.6243 104.632 37.7692C98.3969 30.9141 87.7852 30.4116 80.9301 36.6468Z" fill="#E4FF37" stroke="black"/>
<path d="M77.5658 32.9479L31.4047 74.9344C22.5069 83.0276 21.8545 96.8017 29.9478 105.7C31.9361 107.886 34.2683 109.575 36.7874 110.758C44.5158 114.389 54.0012 113.261 60.713 107.157L106.874 65.17C113.586 59.0645 115.606 49.7271 112.72 41.6895C111.779 39.0707 110.319 36.5902 108.331 34.4048C100.238 25.5069 86.4637 24.8546 77.5658 32.9479ZM34.3864 101.662C28.5228 95.2158 28.9954 85.2365 35.4419 79.373L81.603 37.3864C88.0495 31.5229 98.0288 31.9955 103.892 38.442C105.827 40.5693 107.072 43.0799 107.64 45.7004C108.794 51.0259 107.156 56.8026 102.837 60.7314L56.6758 102.718C52.3701 106.634 46.4882 107.725 41.3077 106.095C38.7339 105.285 36.3338 103.803 34.3864 101.662Z" fill="white" stroke="black"/>
<path d="M131.516 23.6466L23.769 121.65C16.9139 127.885 16.4114 138.497 22.6466 145.352C28.8817 152.207 39.4935 152.71 46.3486 146.474L154.096 48.4711C160.951 42.236 161.453 31.6242 155.218 24.7691C148.983 17.9141 138.371 17.4115 131.516 23.6466Z" fill="#E4FF37" stroke="black"/>
<path d="M128.152 19.9478L20.4047 117.951C11.5069 126.044 10.8545 139.818 18.9478 148.716C27.041 157.614 40.815 158.267 49.7129 150.173L157.46 52.17C166.358 44.0768 167.01 30.3027 158.917 21.4048C150.824 12.507 137.05 11.8546 128.152 19.9478ZM23.3864 144.679C17.5228 138.233 17.9954 128.253 24.4419 122.39L132.189 24.3864C138.636 18.5229 148.615 18.9955 154.478 25.442C160.342 31.8886 159.869 41.8679 153.423 47.7314L45.6757 145.735C39.2292 151.598 29.2499 151.126 23.3864 144.679Z" fill="white" stroke="black"/>
<path d="M161.134 37.7175L31.3794 155.738C24.5243 161.973 24.0217 172.585 30.2569 179.44C36.4921 186.295 47.1038 186.798 53.9589 180.563L183.714 62.542C190.569 56.3068 191.071 45.6951 184.836 38.84C178.601 31.9849 167.989 31.4823 161.134 37.7175Z" fill="#E4FF37" stroke="black"/>
<path d="M157.77 34.0187L28.0151 152.039C19.1172 160.132 18.4649 173.907 26.5581 182.804C34.6514 191.702 48.4254 192.355 57.3233 184.261L187.078 66.2408C195.976 58.1476 196.628 44.3736 188.535 35.4757C180.442 26.5778 166.668 25.9255 157.77 34.0187ZM30.9967 178.767C25.1332 172.321 25.6058 162.341 32.0523 156.478L161.807 38.4573C168.254 32.5937 178.233 33.0663 184.096 39.5129C189.96 45.9594 189.487 55.9387 183.041 61.8022L53.2861 179.823C46.8396 185.686 36.8603 185.214 30.9967 178.767Z" fill="white" stroke="black"/>
<path d="M176.341 68.6321L44.3027 188.73C37.4476 194.965 36.9451 205.576 43.1803 212.432C49.4154 219.287 60.0272 219.789 66.8822 213.554L198.92 93.4566C205.775 87.2214 206.278 76.6097 200.043 69.7546C193.808 62.8995 183.196 62.3969 176.341 68.6321Z" fill="#E4FF37" stroke="black"/>
<path d="M172.976 64.9333L40.9384 185.031C32.0405 193.124 31.3882 206.898 39.4815 215.796C47.5747 224.694 61.3487 225.346 70.2466 217.253L202.285 97.1554C211.183 89.0622 211.835 75.2882 203.742 66.3903C195.648 57.4924 181.874 56.84 172.976 64.9333ZM43.9201 211.759C38.0565 205.312 38.5291 195.333 44.9756 189.469L177.014 69.3719C183.46 63.5083 193.439 63.9809 199.303 70.4275C205.167 76.874 204.694 86.8533 198.247 92.7168L66.2094 212.814C59.7629 218.678 49.7836 218.205 43.9201 211.759Z" fill="white" stroke="black"/>
<path d="M182.763 106.647L80.769 199.417C73.9139 205.652 73.4114 216.264 79.6466 223.119C85.8817 229.974 96.4935 230.477 103.349 224.242L205.343 131.471C212.198 125.236 212.7 114.624 206.465 107.769C200.23 100.914 189.618 100.412 182.763 106.647Z" fill="#E4FF37" stroke="black"/>
<path d="M179.399 102.948L77.4047 195.718C68.5069 203.811 67.8545 217.585 75.9478 226.483C84.041 235.381 97.815 236.034 106.713 227.94L208.707 135.17C217.605 127.077 218.257 113.303 210.164 104.405C202.071 95.5069 188.297 94.8546 179.399 102.948ZM80.3864 222.446C74.5228 216 74.9954 206.02 81.4419 200.157L183.436 107.386C189.882 101.523 199.862 101.996 205.725 108.442C211.589 114.889 211.116 124.868 204.67 130.731L102.676 223.502C96.2292 229.365 86.2499 228.893 80.3864 222.446Z" fill="white" stroke="black"/>
<path d="M172.138 151.647L123.769 195.642C116.914 201.877 116.411 212.489 122.647 219.344C128.882 226.199 139.493 226.702 146.349 220.466L194.718 176.471C201.573 170.236 202.076 159.624 195.84 152.769C189.605 145.914 178.994 145.411 172.138 151.647Z" fill="#E4FF37" stroke="black"/>
<path d="M168.774 147.948L120.405 191.943C111.507 200.036 110.855 213.81 118.948 222.708C127.041 231.606 140.815 232.258 149.713 224.165L198.082 180.17C206.98 172.077 207.633 158.303 199.539 149.405C191.446 140.507 177.672 139.855 168.774 147.948ZM123.386 218.671C117.523 212.225 117.995 202.245 124.442 196.382L172.811 152.386C179.258 146.523 189.237 146.995 195.101 153.442C200.964 159.889 200.492 169.868 194.045 175.731L145.676 219.727C139.229 225.59 129.25 225.118 123.386 218.671Z" fill="white" stroke="black"/>
</svg>
