<svg width="224" height="46" viewBox="0 0 224 46" fill="none" xmlns="http://www.w3.org/2000/svg">
<path d="M5.95919 18.7204C4.71681 17.4235 4.81694 15.4158 6.18285 14.2361L15.6632 6.04838C17.0291 4.86871 19.1435 4.96379 20.3859 6.26075C21.6283 7.55771 21.5282 9.56541 20.1622 10.7451L10.6819 18.9328C9.31602 20.1125 7.20158 20.0174 5.95919 18.7204Z" fill="#007C5F"/>
<path fill-rule="evenodd" clip-rule="evenodd" d="M20.8532 11.4664C22.2 10.3033 22.6054 8.52422 22.0262 6.99264L21.1799 7.72118C21.4245 8.7923 21.0776 9.95463 20.1623 10.7451L10.682 18.9328C9.76957 19.7208 8.5232 19.94 7.42584 19.6122L6.57196 20.3404C8.12294 21.0323 10.0262 20.8172 11.3729 19.6541L20.8532 11.4664Z" fill="#007C5F"/>
<path d="M14.9722 5.32713L5.49194 13.5148C3.70649 15.0568 3.5756 17.6812 5.19958 19.3765C5.59868 19.7932 6.06662 20.1149 6.57196 20.3404L7.42584 19.6122C6.88038 19.4492 6.37173 19.1511 5.95923 18.7205C4.71684 17.4235 4.81697 15.4158 6.18288 14.2361L15.6632 6.04843C17.0291 4.86875 19.1435 4.96383 20.3859 6.26079C20.7958 6.68865 21.0595 7.19386 21.1799 7.72118L22.0262 6.99264C21.8376 6.49381 21.5446 6.02123 21.1456 5.60472C19.5216 3.9094 16.7577 3.78512 14.9722 5.32713Z" fill="#007C5F"/>
<path d="M3.7001 27.1091C2.45771 25.8121 2.55785 23.8044 3.92376 22.6248L26.0523 3.51335C27.4182 2.33368 29.5327 2.42876 30.775 3.72572V3.72572C32.0174 5.02268 31.9173 7.03039 30.5514 8.21006L8.42283 27.3215C7.05692 28.5011 4.94249 28.4061 3.7001 27.1091V27.1091Z" fill="#007C5F"/>
<path fill-rule="evenodd" clip-rule="evenodd" d="M3.23284 21.9035L25.3614 2.7921C27.1468 1.25009 29.9107 1.37438 31.5347 3.0697C33.1587 4.76502 33.0278 7.3894 31.2424 8.93141L9.11381 28.0428C7.32836 29.5848 4.56447 29.4605 2.94049 27.7652C1.3165 26.0699 1.44739 23.4455 3.23284 21.9035ZM3.92379 22.6248C2.55788 23.8045 2.45775 25.8122 3.70013 27.1091C4.94252 28.4061 7.05695 28.5012 8.42286 27.3215L30.5514 8.21011C31.9173 7.03044 32.0175 5.02273 30.7751 3.72577C29.5327 2.42881 27.4182 2.33373 26.0523 3.5134L3.92379 22.6248Z" fill="#007C5F"/>
<path d="M5.26309 33.7566C4.0207 32.4596 4.12084 30.4519 5.48675 29.2722L32.1351 6.25729C33.501 5.07762 35.6154 5.1727 36.8578 6.46966V6.46966C38.1002 7.76662 38.0001 9.77432 36.6342 10.954L9.98582 33.9689C8.61991 35.1486 6.50547 35.0535 5.26309 33.7566V33.7566Z" fill="#007C5F"/>
<path fill-rule="evenodd" clip-rule="evenodd" d="M4.79583 28.551L31.4442 5.53603C33.2296 3.99402 35.9935 4.11831 37.6175 5.81363C39.2415 7.50895 39.1106 10.1333 37.3251 11.6753L10.6768 34.6903C8.89135 36.2323 6.12746 36.108 4.50347 34.4127C2.87949 32.7173 3.01038 30.093 4.79583 28.551ZM5.48678 29.2723C4.12087 30.4519 4.02073 32.4596 5.26312 33.7566C6.5055 35.0536 8.61995 35.1486 9.98585 33.969L36.6342 10.954C38.0001 9.77437 38.1002 7.76666 36.8578 6.4697C35.6155 5.17274 33.501 5.07766 32.1351 6.25733L5.48678 29.2723Z" fill="#007C5F"/>
<path d="M7.9172 40.1902C6.67482 38.8932 6.77495 36.8855 8.14086 35.7058L35.2581 12.2859C36.624 11.1062 38.7385 11.2013 39.9809 12.4982V12.4982C41.2233 13.7952 41.1231 15.8029 39.7572 16.9826L12.6399 40.4025C11.274 41.5822 9.15959 41.4871 7.9172 40.1902V40.1902Z" fill="#007C5F"/>
<path fill-rule="evenodd" clip-rule="evenodd" d="M7.44994 34.9846L34.5672 11.5646C36.3527 10.0226 39.1166 10.1469 40.7405 11.8422C42.3645 13.5375 42.2336 16.1619 40.4482 17.7039L13.3309 41.1239C11.5455 42.6659 8.78157 42.5416 7.15759 40.8463C5.5336 39.1509 5.66449 36.5266 7.44994 34.9846ZM8.14089 35.7059C6.77498 36.8855 6.67485 38.8932 7.91723 40.1902C9.15962 41.4872 11.2741 41.5822 12.64 40.4026L39.7572 16.9826C41.1231 15.803 41.2233 13.7953 39.9809 12.4983C38.7385 11.2013 36.6241 11.1063 35.2582 12.2859L8.14089 35.7059Z" fill="#007C5F"/>
<path d="M15.4065 42.2744C14.1641 40.9774 14.2642 38.9697 15.6301 37.79L36.5771 19.6991C37.943 18.5194 40.0575 18.6145 41.2998 19.9115V19.9115C42.5422 21.2084 42.4421 23.2161 41.0762 24.3958L20.1292 42.4867C18.7633 43.6664 16.6488 43.5713 15.4065 42.2744V42.2744Z" fill="#007C5F"/>
<path fill-rule="evenodd" clip-rule="evenodd" d="M14.9392 37.0685L35.8862 18.9776C37.6716 17.4356 40.4355 17.5599 42.0595 19.2552C43.6835 20.9505 43.5526 23.5749 41.7672 25.1169L20.8202 43.2078C19.0347 44.7499 16.2708 44.6256 14.6468 42.9302C13.0229 41.2349 13.1538 38.6106 14.9392 37.0685ZM15.6301 37.7898C14.2642 38.9695 14.1641 40.9772 15.4065 42.2742C16.6489 43.5711 18.7633 43.6662 20.1292 42.4865L41.0762 24.3956C42.4421 23.2159 42.5423 21.2082 41.2999 19.9113C40.0575 18.6143 37.943 18.5192 36.5771 19.6989L15.6301 37.7898Z" fill="#007C5F"/>
<path d="M24.2376 41.5381C22.9952 40.2411 23.0953 38.2334 24.4612 37.0537L34.3951 28.4743C35.761 27.2946 37.8754 27.3897 39.1178 28.6867V28.6867C40.3602 29.9836 40.2601 31.9913 38.8942 33.171L28.9603 41.7504C27.5944 42.9301 25.48 42.835 24.2376 41.5381V41.5381Z" fill="#007C5F"/>
<path fill-rule="evenodd" clip-rule="evenodd" d="M23.7703 36.3325L33.7042 27.753C35.4896 26.211 38.2535 26.3353 39.8775 28.0306C41.5015 29.726 41.3706 32.3503 39.5852 33.8923L29.6513 42.4718C27.8658 44.0138 25.1019 43.8895 23.478 42.1942C21.854 40.4988 21.9849 37.8745 23.7703 36.3325ZM24.4613 37.0538C23.0954 38.2334 22.9952 40.2411 24.2376 41.5381C25.48 42.8351 27.5944 42.9301 28.9603 41.7505L38.8942 33.171C40.2601 31.9914 40.3602 29.9837 39.1179 28.6867C37.8755 27.3898 35.761 27.2947 34.3951 28.4743L24.4613 37.0538Z" fill="#007C5F"/>
<path d="M6.31463 17.9788C5.19166 16.8065 5.28217 14.9918 6.51679 13.9255L15.0859 6.52478C16.3205 5.45849 18.2317 5.54443 19.3547 6.71673C20.4777 7.88903 20.3872 9.70377 19.1526 10.7701L10.5834 18.1708C9.34882 19.2371 7.43761 19.1511 6.31463 17.9788Z" fill="#E4FF37"/>
<path fill-rule="evenodd" clip-rule="evenodd" d="M19.7771 11.4219C20.9945 10.3705 21.3608 8.76249 20.8374 7.37812L20.0724 8.03663C20.2935 9.0048 19.9799 10.0554 19.1526 10.7699L10.5835 18.1707C9.75876 18.8829 8.63218 19.0811 7.64029 18.7847L6.86849 19.4429C8.27039 20.0684 9.99076 19.8739 11.208 18.8226L19.7771 11.4219Z" fill="white"/>
<path d="M14.4614 5.87268L5.89227 13.2734C4.27843 14.6672 4.16012 17.0394 5.62801 18.5717C5.98875 18.9483 6.41172 19.2391 6.86849 19.4429L7.64029 18.7847C7.14726 18.6374 6.6875 18.368 6.31465 17.9787C5.19167 16.8064 5.28218 14.9917 6.51681 13.9254L15.0859 6.52466C16.3205 5.45837 18.2317 5.54431 19.3547 6.71661C19.7252 7.10335 19.9636 7.56 20.0724 8.03663L20.8374 7.37812C20.6669 6.92723 20.402 6.50007 20.0414 6.1236C18.5735 4.59122 16.0752 4.47889 14.4614 5.87268Z" fill="white"/>
<path d="M4.27264 25.5611C3.14967 24.3888 3.24018 22.5741 4.4748 21.5078L24.4765 4.23329C25.7111 3.16701 27.6223 3.25295 28.7453 4.42525V4.42525C29.8682 5.59755 29.7777 7.41229 28.5431 8.47858L8.54145 25.7531C7.30682 26.8194 5.39561 26.7334 4.27264 25.5611V25.5611Z" fill="#E4FF37"/>
<path fill-rule="evenodd" clip-rule="evenodd" d="M3.85028 20.8557L23.8519 3.5812C25.4658 2.1874 27.964 2.29974 29.4319 3.83212C30.8998 5.36449 30.7815 7.73663 29.1676 9.13042L9.16599 26.4049C7.55215 27.7987 5.05392 27.6864 3.58602 26.154C2.11813 24.6216 2.23644 22.2495 3.85028 20.8557ZM4.47481 21.5077C3.24019 22.574 3.14968 24.3887 4.27265 25.561C5.39563 26.7333 7.30683 26.8192 8.54146 25.753L28.5431 8.47845C29.7777 7.41217 29.8682 5.59743 28.7453 4.42513C27.6223 3.25283 25.7111 3.16688 24.4765 4.23317L4.47481 21.5077Z" fill="white"/>
<path d="M5.68542 31.5697C4.56245 30.3974 4.65296 28.5826 5.88758 27.5163L29.9746 6.7135C31.2092 5.64721 33.1204 5.73315 34.2434 6.90546V6.90546C35.3664 8.07776 35.2759 9.89249 34.0412 10.9588L9.95423 31.7616C8.71961 32.8279 6.8084 32.742 5.68542 31.5697V31.5697Z" fill="#E4FF37"/>
<path fill-rule="evenodd" clip-rule="evenodd" d="M5.263 26.8642L29.35 6.06141C30.9639 4.66761 33.4621 4.77995 34.93 6.31232C36.3979 7.8447 36.2796 10.2168 34.6657 11.6106L10.5787 32.4135C8.96488 33.8073 6.46664 33.6949 4.99874 32.1626C3.53085 30.6302 3.64916 28.258 5.263 26.8642ZM5.88753 27.5162C4.65291 28.5825 4.5624 30.3972 5.68537 31.5695C6.80835 32.7418 8.71956 32.8278 9.95418 31.7615L34.0412 10.9587C35.2758 9.89237 35.3663 8.07764 34.2434 6.90533C33.1204 5.73303 31.2092 5.64709 29.9745 6.71338L5.88753 27.5162Z" fill="white"/>
<path d="M8.08441 37.3848C6.96144 36.2125 7.05195 34.3978 8.28657 33.3315L32.7975 12.1626C34.0321 11.0963 35.9433 11.1823 37.0663 12.3546V12.3546C38.1892 13.5269 38.0987 15.3416 36.8641 16.4079L12.3532 37.5768C11.1186 38.6431 9.20738 38.5571 8.08441 37.3848V37.3848Z" fill="#E4FF37"/>
<path fill-rule="evenodd" clip-rule="evenodd" d="M7.66204 32.6797L32.1729 11.5108C33.7868 10.117 36.285 10.2293 37.7529 11.7617C39.2208 13.294 39.1025 15.6662 37.4886 17.06L12.9778 38.2289C11.3639 39.6227 8.86568 39.5104 7.39779 37.978C5.92989 36.4456 6.0482 34.0735 7.66204 32.6797ZM8.28658 33.3316C7.05196 34.3979 6.96145 36.2127 8.08442 37.385C9.20739 38.5573 11.1186 38.6432 12.3532 37.5769L36.8641 16.408C38.0987 15.3417 38.1892 13.527 37.0663 12.3547C35.9433 11.1824 34.0321 11.0964 32.7975 12.1627L8.28658 33.3316Z" fill="white"/>
<path d="M14.8539 39.2686C13.7309 38.0963 13.8214 36.2816 15.056 35.2153L33.9897 18.8632C35.2243 17.7969 37.1355 17.8828 38.2585 19.0551V19.0551C39.3815 20.2275 39.291 22.0422 38.0563 23.1085L19.1227 39.4606C17.8881 40.5269 15.9769 40.4409 14.8539 39.2686V39.2686Z" fill="#E4FF37"/>
<path fill-rule="evenodd" clip-rule="evenodd" d="M14.4315 34.5635L33.3651 18.2113C34.9789 16.8175 37.4772 16.9299 38.9451 18.4623C40.413 19.9946 40.2947 22.3668 38.6808 23.7606L19.7472 40.1127C18.1333 41.5065 15.6351 41.3941 14.1672 39.8618C12.6993 38.3294 12.8176 35.9573 14.4315 34.5635ZM15.056 35.2154C13.8214 36.2817 13.7309 38.0965 14.8538 39.2688C15.9768 40.4411 17.888 40.527 19.1226 39.4607L38.0563 23.1086C39.2909 22.0423 39.3814 20.2276 38.2585 19.0553C37.1355 17.883 35.2243 17.797 33.9896 18.8633L15.056 35.2154Z" fill="white"/>
<path d="M22.8362 38.6034C21.7132 37.4311 21.8037 35.6163 23.0383 34.55L32.0174 26.7952C33.252 25.7289 35.1632 25.8149 36.2862 26.9872V26.9872C37.4092 28.1595 37.3187 29.9742 36.0841 31.0405L27.105 38.7953C25.8704 39.8616 23.9592 39.7757 22.8362 38.6034V38.6034Z" fill="#E4FF37"/>
<path fill-rule="evenodd" clip-rule="evenodd" d="M22.4138 33.8979L31.3928 26.1431C33.0067 24.7493 35.5049 24.8617 36.9728 26.394C38.4407 27.9264 38.3224 30.2986 36.7085 31.6924L27.7295 39.4472C26.1156 40.841 23.6174 40.7286 22.1495 39.1962C20.6816 37.6639 20.7999 35.2917 22.4138 33.8979ZM23.0383 34.5499C21.8037 35.6162 21.7132 37.4309 22.8361 38.6032C23.9591 39.7755 25.8703 39.8615 27.1049 38.7952L36.084 31.0404C37.3186 29.9741 37.4091 28.1594 36.2862 26.9871C35.1632 25.8148 33.252 25.7288 32.0174 26.7951L23.0383 34.5499Z" fill="white"/>
<path d="M75.9199 19.0918C75.9199 20.2988 75.7441 21.4121 75.3926 22.4316C75.041 23.4395 74.4727 24.3125 73.6875 25.0508C72.9141 25.7773 71.9062 26.3457 70.6641 26.7559C69.4219 27.166 67.9102 27.3711 66.1289 27.3711H55.3008V35H48.7793V10.8477H66.1289C67.9102 10.8477 69.4219 11.0527 70.6641 11.4629C71.9062 11.8613 72.9141 12.4297 73.6875 13.168C74.4727 13.8945 75.041 14.7617 75.3926 15.7695C75.7441 16.7773 75.9199 17.8848 75.9199 19.0918ZM69.3281 19.1973C69.3281 18.6348 69.2461 18.1543 69.082 17.7559C68.9297 17.3457 68.6719 17.0117 68.3086 16.7539C67.9453 16.4961 67.4707 16.3086 66.8848 16.1914C66.2988 16.0625 65.5781 15.998 64.7227 15.998H55.3008V22.2207H64.7227C65.5781 22.2207 66.2988 22.1738 66.8848 22.0801C67.4707 21.9746 67.9453 21.8047 68.3086 21.5703C68.6719 21.3242 68.9297 21.0078 69.082 20.6211C69.2461 20.2344 69.3281 19.7598 69.3281 19.1973ZM81.334 35V10.8477H87.8555V35H81.334ZM122.045 33.3477C121.201 33.6992 120.352 34.0156 119.496 34.2969C118.641 34.5781 117.756 34.8184 116.842 35.0176C115.928 35.2285 114.961 35.3867 113.941 35.4922C112.934 35.5977 111.85 35.6504 110.689 35.6504C108.229 35.6504 105.961 35.3867 103.887 34.8594C101.824 34.332 100.043 33.541 98.543 32.4863C97.0547 31.4199 95.8945 30.0957 95.0625 28.5137C94.2305 26.9199 93.8145 25.0625 93.8145 22.9414C93.8145 20.8203 94.2305 18.9688 95.0625 17.3867C95.8945 15.793 97.0547 14.4688 98.543 13.4141C100.043 12.3477 101.824 11.5508 103.887 11.0234C105.961 10.4961 108.229 10.2324 110.689 10.2324C111.85 10.2324 112.934 10.2852 113.941 10.3906C114.961 10.4961 115.928 10.6543 116.842 10.8652C117.756 11.0645 118.641 11.3047 119.496 11.5859C120.352 11.8672 121.201 12.1836 122.045 12.5352V18.4062C121.377 18.043 120.674 17.6855 119.936 17.334C119.197 16.9707 118.383 16.6484 117.492 16.3672C116.602 16.0742 115.623 15.8398 114.557 15.6641C113.49 15.4766 112.289 15.3828 110.953 15.3828C108.902 15.3828 107.197 15.5938 105.838 16.0156C104.49 16.4375 103.412 17 102.604 17.7031C101.795 18.4062 101.227 19.2148 100.898 20.1289C100.57 21.0312 100.406 21.9688 100.406 22.9414C100.406 23.5859 100.477 24.2246 100.617 24.8574C100.758 25.4785 100.992 26.0703 101.32 26.6328C101.648 27.1836 102.076 27.6934 102.604 28.1621C103.131 28.6309 103.787 29.0352 104.572 29.375C105.357 29.7148 106.271 29.9844 107.314 30.1836C108.369 30.3711 109.582 30.4648 110.953 30.4648C112.289 30.4648 113.49 30.3828 114.557 30.2188C115.623 30.043 116.602 29.8145 117.492 29.5332C118.383 29.252 119.197 28.9355 119.936 28.584C120.674 28.2207 121.377 27.8516 122.045 27.4766V33.3477ZM151.066 35C150.949 33.6875 150.633 32.5391 150.117 31.5547C149.602 30.5586 148.951 29.7031 148.166 28.9883C147.393 28.2734 146.514 27.6816 145.529 27.2129C144.557 26.7441 143.555 26.375 142.523 26.1055C141.492 25.8242 140.461 25.6309 139.43 25.5254C138.41 25.4082 137.461 25.3496 136.582 25.3496H134.648V35H128.127V10.8477H134.648V20.1641H135.984C136.887 20.1641 137.83 20.0938 138.814 19.9531C139.799 19.8125 140.771 19.5898 141.732 19.2852C142.705 18.9805 143.637 18.5879 144.527 18.1074C145.418 17.627 146.215 17.041 146.918 16.3496C147.621 15.6582 148.207 14.8613 148.676 13.959C149.145 13.0449 149.438 12.0078 149.555 10.8477H156.199C156.082 12.125 155.824 13.2793 155.426 14.3105C155.039 15.3418 154.553 16.2676 153.967 17.0879C153.393 17.8965 152.748 18.6055 152.033 19.2148C151.318 19.8242 150.586 20.3516 149.836 20.7969C149.086 21.2305 148.336 21.5938 147.586 21.8867C146.848 22.168 146.156 22.3848 145.512 22.5371C146.332 22.666 147.182 22.8711 148.061 23.1523C148.951 23.4219 149.83 23.7852 150.697 24.2422C151.564 24.6875 152.391 25.2383 153.176 25.8945C153.973 26.5508 154.688 27.3184 155.32 28.1973C155.953 29.0762 156.48 30.0781 156.902 31.2031C157.324 32.3281 157.594 33.5938 157.711 35H151.066ZM169.84 24.6641C169.84 25.6719 169.934 26.498 170.121 27.1426C170.309 27.7754 170.613 28.2793 171.035 28.6543C171.457 29.0293 172.002 29.2871 172.67 29.4277C173.35 29.5684 174.182 29.6387 175.166 29.6387H187.541V35H173.83C171.932 35 170.314 34.8477 168.979 34.543C167.654 34.2266 166.57 33.7461 165.727 33.1016C164.883 32.4453 164.268 31.6191 163.881 30.623C163.506 29.627 163.318 28.4434 163.318 27.0723V10.8477H169.84V24.6641ZM219.533 33.8047C217.553 34.4609 215.572 34.9297 213.592 35.2109C211.623 35.5039 209.607 35.6504 207.545 35.6504C204.908 35.6504 202.559 35.3691 200.496 34.8066C198.445 34.2324 196.717 33.4062 195.311 32.3281C193.904 31.25 192.832 29.9316 192.094 28.373C191.355 26.8145 190.986 25.0508 190.986 23.082C190.986 21.2539 191.355 19.5605 192.094 18.002C192.844 16.4316 193.898 15.0723 195.258 13.9238C196.629 12.7637 198.281 11.8613 200.215 11.2168C202.148 10.5605 204.305 10.2324 206.684 10.2324C208.875 10.2324 210.879 10.5312 212.695 11.1289C214.523 11.7148 216.088 12.5879 217.389 13.748C218.701 14.9082 219.715 16.3379 220.43 18.0371C221.156 19.7363 221.52 21.6934 221.52 23.9082V25.5254H197.719C197.93 26.2871 198.275 26.9844 198.756 27.6172C199.248 28.25 199.91 28.7891 200.742 29.2344C201.574 29.6797 202.594 30.0254 203.801 30.2715C205.02 30.5176 206.473 30.6406 208.16 30.6406C209.355 30.6406 210.527 30.5703 211.676 30.4297C212.824 30.2773 213.896 30.084 214.893 29.8496C215.889 29.6035 216.785 29.334 217.582 29.041C218.391 28.748 219.041 28.4551 219.533 28.1621V33.8047ZM215.033 20.7441C214.975 20.1465 214.793 19.5312 214.488 18.8984C214.195 18.2539 213.727 17.6738 213.082 17.1582C212.438 16.6426 211.594 16.2207 210.551 15.8926C209.508 15.5527 208.207 15.3828 206.648 15.3828C205.184 15.3828 203.918 15.5645 202.852 15.9277C201.785 16.291 200.889 16.7422 200.162 17.2812C199.447 17.8203 198.891 18.4004 198.492 19.0215C198.094 19.6426 197.836 20.2168 197.719 20.7441H215.033Z" fill="#E4FF37"/>
</svg>
