<svg width="224" height="46" viewBox="0 0 224 46" fill="none" xmlns="http://www.w3.org/2000/svg">
<path d="M5.95919 18.7204C4.71681 17.4235 4.81694 15.4158 6.18285 14.2361L15.6632 6.04838C17.0291 4.86871 19.1435 4.96379 20.3859 6.26075C21.6283 7.55771 21.5282 9.56541 20.1622 10.7451L10.6819 18.9328C9.31602 20.1125 7.20158 20.0174 5.95919 18.7204Z" fill="#007C5F"/>
<path fill-rule="evenodd" clip-rule="evenodd" d="M20.8532 11.4664C22.2 10.3033 22.6054 8.52422 22.0262 6.99264L21.1799 7.72118C21.4245 8.7923 21.0776 9.95463 20.1623 10.7451L10.682 18.9328C9.76957 19.7208 8.5232 19.94 7.42584 19.6122L6.57196 20.3404C8.12294 21.0323 10.0262 20.8172 11.3729 19.6541L20.8532 11.4664Z" fill="#007C5F"/>
<path d="M14.9722 5.32713L5.49194 13.5148C3.70649 15.0568 3.5756 17.6812 5.19958 19.3765C5.59868 19.7932 6.06662 20.1149 6.57196 20.3404L7.42584 19.6122C6.88038 19.4492 6.37173 19.1511 5.95923 18.7205C4.71684 17.4235 4.81697 15.4158 6.18288 14.2361L15.6632 6.04843C17.0291 4.86875 19.1435 4.96383 20.3859 6.26079C20.7958 6.68865 21.0595 7.19386 21.1799 7.72118L22.0262 6.99264C21.8376 6.49381 21.5446 6.02123 21.1456 5.60472C19.5216 3.9094 16.7577 3.78512 14.9722 5.32713Z" fill="#007C5F"/>
<path d="M3.7001 27.1091C2.45771 25.8121 2.55785 23.8044 3.92376 22.6248L26.0523 3.51335C27.4182 2.33368 29.5327 2.42876 30.775 3.72572V3.72572C32.0174 5.02268 31.9173 7.03039 30.5514 8.21006L8.42283 27.3215C7.05692 28.5011 4.94249 28.4061 3.7001 27.1091V27.1091Z" fill="#007C5F"/>
<path fill-rule="evenodd" clip-rule="evenodd" d="M3.23284 21.9035L25.3614 2.7921C27.1468 1.25009 29.9107 1.37438 31.5347 3.0697C33.1587 4.76502 33.0278 7.3894 31.2424 8.93141L9.11381 28.0428C7.32836 29.5848 4.56447 29.4605 2.94049 27.7652C1.3165 26.0699 1.44739 23.4455 3.23284 21.9035ZM3.92379 22.6248C2.55788 23.8045 2.45775 25.8122 3.70013 27.1091C4.94252 28.4061 7.05695 28.5012 8.42286 27.3215L30.5514 8.21011C31.9173 7.03044 32.0175 5.02273 30.7751 3.72577C29.5327 2.42881 27.4182 2.33373 26.0523 3.5134L3.92379 22.6248Z" fill="#007C5F"/>
<path d="M5.26309 33.7566C4.0207 32.4596 4.12084 30.4519 5.48675 29.2722L32.1351 6.25729C33.501 5.07762 35.6154 5.1727 36.8578 6.46966V6.46966C38.1002 7.76662 38.0001 9.77432 36.6342 10.954L9.98582 33.9689C8.61991 35.1486 6.50547 35.0535 5.26309 33.7566V33.7566Z" fill="#007C5F"/>
<path fill-rule="evenodd" clip-rule="evenodd" d="M4.79583 28.551L31.4442 5.53603C33.2296 3.99402 35.9935 4.11831 37.6175 5.81363C39.2415 7.50895 39.1106 10.1333 37.3251 11.6753L10.6768 34.6903C8.89135 36.2323 6.12746 36.108 4.50347 34.4127C2.87949 32.7173 3.01038 30.093 4.79583 28.551ZM5.48678 29.2723C4.12087 30.4519 4.02073 32.4596 5.26312 33.7566C6.5055 35.0536 8.61995 35.1486 9.98585 33.969L36.6342 10.954C38.0001 9.77437 38.1002 7.76666 36.8578 6.4697C35.6155 5.17274 33.501 5.07766 32.1351 6.25733L5.48678 29.2723Z" fill="#007C5F"/>
<path d="M7.9172 40.1902C6.67482 38.8932 6.77495 36.8855 8.14086 35.7058L35.2581 12.2859C36.624 11.1062 38.7385 11.2013 39.9809 12.4982V12.4982C41.2233 13.7952 41.1231 15.8029 39.7572 16.9826L12.6399 40.4025C11.274 41.5822 9.15959 41.4871 7.9172 40.1902V40.1902Z" fill="#007C5F"/>
<path fill-rule="evenodd" clip-rule="evenodd" d="M7.44994 34.9846L34.5672 11.5646C36.3527 10.0226 39.1166 10.1469 40.7405 11.8422C42.3645 13.5375 42.2336 16.1619 40.4482 17.7039L13.3309 41.1239C11.5455 42.6659 8.78157 42.5416 7.15759 40.8463C5.5336 39.1509 5.66449 36.5266 7.44994 34.9846ZM8.14089 35.7059C6.77498 36.8855 6.67485 38.8932 7.91723 40.1902C9.15962 41.4872 11.2741 41.5822 12.64 40.4026L39.7572 16.9826C41.1231 15.803 41.2233 13.7953 39.9809 12.4983C38.7385 11.2013 36.6241 11.1063 35.2582 12.2859L8.14089 35.7059Z" fill="#007C5F"/>
<path d="M15.4065 42.2744C14.1641 40.9774 14.2642 38.9697 15.6301 37.79L36.5771 19.6991C37.943 18.5194 40.0575 18.6145 41.2998 19.9115V19.9115C42.5422 21.2084 42.4421 23.2161 41.0762 24.3958L20.1292 42.4867C18.7633 43.6664 16.6488 43.5713 15.4065 42.2744V42.2744Z" fill="#007C5F"/>
<path fill-rule="evenodd" clip-rule="evenodd" d="M14.9392 37.0685L35.8862 18.9776C37.6716 17.4356 40.4355 17.5599 42.0595 19.2552C43.6835 20.9505 43.5526 23.5749 41.7672 25.1169L20.8202 43.2078C19.0347 44.7499 16.2708 44.6256 14.6468 42.9302C13.0229 41.2349 13.1538 38.6106 14.9392 37.0685ZM15.6301 37.7898C14.2642 38.9695 14.1641 40.9772 15.4065 42.2742C16.6489 43.5711 18.7633 43.6662 20.1292 42.4865L41.0762 24.3956C42.4421 23.2159 42.5423 21.2082 41.2999 19.9113C40.0575 18.6143 37.943 18.5192 36.5771 19.6989L15.6301 37.7898Z" fill="#007C5F"/>
<path d="M24.2376 41.5381C22.9952 40.2411 23.0953 38.2334 24.4612 37.0537L34.3951 28.4743C35.761 27.2946 37.8754 27.3897 39.1178 28.6867V28.6867C40.3602 29.9836 40.2601 31.9913 38.8942 33.171L28.9603 41.7504C27.5944 42.9301 25.48 42.835 24.2376 41.5381V41.5381Z" fill="#007C5F"/>
<path fill-rule="evenodd" clip-rule="evenodd" d="M23.7703 36.3325L33.7042 27.753C35.4896 26.211 38.2535 26.3353 39.8775 28.0306C41.5015 29.726 41.3706 32.3503 39.5852 33.8923L29.6513 42.4718C27.8658 44.0138 25.1019 43.8895 23.478 42.1942C21.854 40.4988 21.9849 37.8745 23.7703 36.3325ZM24.4613 37.0538C23.0954 38.2334 22.9952 40.2411 24.2376 41.5381C25.48 42.8351 27.5944 42.9301 28.9603 41.7505L38.8942 33.171C40.2601 31.9914 40.3602 29.9837 39.1179 28.6867C37.8755 27.3898 35.761 27.2947 34.3951 28.4743L24.4613 37.0538Z" fill="#007C5F"/>
<path d="M6.31463 17.9788C5.19166 16.8065 5.28217 14.9918 6.51679 13.9255L15.0859 6.52478C16.3205 5.45849 18.2317 5.54443 19.3547 6.71673C20.4777 7.88903 20.3872 9.70377 19.1526 10.7701L10.5834 18.1708C9.34882 19.2371 7.43761 19.1511 6.31463 17.9788Z" fill="#E4FF37"/>
<path fill-rule="evenodd" clip-rule="evenodd" d="M19.7771 11.4219C20.9945 10.3705 21.3608 8.76249 20.8374 7.37812L20.0724 8.03663C20.2935 9.0048 19.9799 10.0554 19.1526 10.7699L10.5835 18.1707C9.75876 18.8829 8.63218 19.0811 7.64029 18.7847L6.86849 19.4429C8.27039 20.0684 9.99076 19.8739 11.208 18.8226L19.7771 11.4219Z" fill="white"/>
<path d="M14.4614 5.87268L5.89227 13.2734C4.27843 14.6672 4.16012 17.0394 5.62801 18.5717C5.98875 18.9483 6.41172 19.2391 6.86849 19.4429L7.64029 18.7847C7.14726 18.6374 6.6875 18.368 6.31465 17.9787C5.19167 16.8064 5.28218 14.9917 6.51681 13.9254L15.0859 6.52466C16.3205 5.45837 18.2317 5.54431 19.3547 6.71661C19.7252 7.10335 19.9636 7.56 20.0724 8.03663L20.8374 7.37812C20.6669 6.92723 20.402 6.50007 20.0414 6.1236C18.5735 4.59122 16.0752 4.47889 14.4614 5.87268Z" fill="white"/>
<path d="M4.27264 25.5611C3.14967 24.3888 3.24018 22.5741 4.4748 21.5078L24.4765 4.23329C25.7111 3.16701 27.6223 3.25295 28.7453 4.42525V4.42525C29.8682 5.59755 29.7777 7.41229 28.5431 8.47858L8.54145 25.7531C7.30682 26.8194 5.39561 26.7334 4.27264 25.5611V25.5611Z" fill="#E4FF37"/>
<path fill-rule="evenodd" clip-rule="evenodd" d="M3.85028 20.8557L23.8519 3.5812C25.4658 2.1874 27.964 2.29974 29.4319 3.83212C30.8998 5.36449 30.7815 7.73663 29.1676 9.13042L9.16599 26.4049C7.55215 27.7987 5.05392 27.6864 3.58602 26.154C2.11813 24.6216 2.23644 22.2495 3.85028 20.8557ZM4.47481 21.5077C3.24019 22.574 3.14968 24.3887 4.27265 25.561C5.39563 26.7333 7.30683 26.8192 8.54146 25.753L28.5431 8.47845C29.7777 7.41217 29.8682 5.59743 28.7453 4.42513C27.6223 3.25283 25.7111 3.16688 24.4765 4.23317L4.47481 21.5077Z" fill="white"/>
<path d="M5.68542 31.5697C4.56245 30.3974 4.65296 28.5826 5.88758 27.5163L29.9746 6.7135C31.2092 5.64721 33.1204 5.73315 34.2434 6.90546V6.90546C35.3664 8.07776 35.2759 9.89249 34.0412 10.9588L9.95423 31.7616C8.71961 32.8279 6.8084 32.742 5.68542 31.5697V31.5697Z" fill="#E4FF37"/>
<path fill-rule="evenodd" clip-rule="evenodd" d="M5.263 26.8642L29.35 6.06141C30.9639 4.66761 33.4621 4.77995 34.93 6.31232C36.3979 7.8447 36.2796 10.2168 34.6657 11.6106L10.5787 32.4135C8.96488 33.8073 6.46664 33.6949 4.99874 32.1626C3.53085 30.6302 3.64916 28.258 5.263 26.8642ZM5.88753 27.5162C4.65291 28.5825 4.5624 30.3972 5.68537 31.5695C6.80835 32.7418 8.71956 32.8278 9.95418 31.7615L34.0412 10.9587C35.2758 9.89237 35.3663 8.07764 34.2434 6.90533C33.1204 5.73303 31.2092 5.64709 29.9745 6.71338L5.88753 27.5162Z" fill="white"/>
<path d="M8.08441 37.3848C6.96144 36.2125 7.05195 34.3978 8.28657 33.3315L32.7975 12.1626C34.0321 11.0963 35.9433 11.1823 37.0663 12.3546V12.3546C38.1892 13.5269 38.0987 15.3416 36.8641 16.4079L12.3532 37.5768C11.1186 38.6431 9.20738 38.5571 8.08441 37.3848V37.3848Z" fill="#E4FF37"/>
<path fill-rule="evenodd" clip-rule="evenodd" d="M7.66204 32.6797L32.1729 11.5108C33.7868 10.117 36.285 10.2293 37.7529 11.7617C39.2208 13.294 39.1025 15.6662 37.4886 17.06L12.9778 38.2289C11.3639 39.6227 8.86568 39.5104 7.39779 37.978C5.92989 36.4456 6.0482 34.0735 7.66204 32.6797ZM8.28658 33.3316C7.05196 34.3979 6.96145 36.2127 8.08442 37.385C9.20739 38.5573 11.1186 38.6432 12.3532 37.5769L36.8641 16.408C38.0987 15.3417 38.1892 13.527 37.0663 12.3547C35.9433 11.1824 34.0321 11.0964 32.7975 12.1627L8.28658 33.3316Z" fill="white"/>
<path d="M14.8539 39.2686C13.7309 38.0963 13.8214 36.2816 15.056 35.2153L33.9897 18.8632C35.2243 17.7969 37.1355 17.8828 38.2585 19.0551V19.0551C39.3815 20.2275 39.291 22.0422 38.0563 23.1085L19.1227 39.4606C17.8881 40.5269 15.9769 40.4409 14.8539 39.2686V39.2686Z" fill="#E4FF37"/>
<path fill-rule="evenodd" clip-rule="evenodd" d="M14.4315 34.5635L33.3651 18.2113C34.9789 16.8175 37.4772 16.9299 38.9451 18.4623C40.413 19.9946 40.2947 22.3668 38.6808 23.7606L19.7472 40.1127C18.1333 41.5065 15.6351 41.3941 14.1672 39.8618C12.6993 38.3294 12.8176 35.9573 14.4315 34.5635ZM15.056 35.2154C13.8214 36.2817 13.7309 38.0965 14.8538 39.2688C15.9768 40.4411 17.888 40.527 19.1226 39.4607L38.0563 23.1086C39.2909 22.0423 39.3814 20.2276 38.2585 19.0553C37.1355 17.883 35.2243 17.797 33.9896 18.8633L15.056 35.2154Z" fill="white"/>
<path d="M22.8362 38.6034C21.7132 37.4311 21.8037 35.6163 23.0383 34.55L32.0174 26.7952C33.252 25.7289 35.1632 25.8149 36.2862 26.9872V26.9872C37.4092 28.1595 37.3187 29.9742 36.0841 31.0405L27.105 38.7953C25.8704 39.8616 23.9592 39.7757 22.8362 38.6034V38.6034Z" fill="#E4FF37"/>
<path fill-rule="evenodd" clip-rule="evenodd" d="M22.4138 33.8979L31.3928 26.1431C33.0067 24.7493 35.5049 24.8617 36.9728 26.394C38.4407 27.9264 38.3224 30.2986 36.7085 31.6924L27.7295 39.4472C26.1156 40.841 23.6174 40.7286 22.1495 39.1962C20.6816 37.6639 20.7999 35.2917 22.4138 33.8979ZM23.0383 34.5499C21.8037 35.6162 21.7132 37.4309 22.8361 38.6032C23.9591 39.7755 25.8703 39.8615 27.1049 38.7952L36.084 31.0404C37.3186 29.9741 37.4091 28.1594 36.2862 26.9871C35.1632 25.8148 33.252 25.7288 32.0174 26.7951L23.0383 34.5499Z" fill="white"/>
<mask id="path-25-outside-1_180_309" maskUnits="userSpaceOnUse" x="47" y="9" width="176" height="28" fill="black">
<rect fill="white" x="47" y="9" width="176" height="28"/>
<path d="M75.9199 19.0918C75.9199 20.2988 75.7441 21.4121 75.3926 22.4316C75.041 23.4395 74.4727 24.3125 73.6875 25.0508C72.9141 25.7773 71.9062 26.3457 70.6641 26.7559C69.4219 27.166 67.9102 27.3711 66.1289 27.3711H55.3008V35H48.7793V10.8477H66.1289C67.9102 10.8477 69.4219 11.0527 70.6641 11.4629C71.9062 11.8613 72.9141 12.4297 73.6875 13.168C74.4727 13.8945 75.041 14.7617 75.3926 15.7695C75.7441 16.7773 75.9199 17.8848 75.9199 19.0918ZM69.3281 19.1973C69.3281 18.6348 69.2461 18.1543 69.082 17.7559C68.9297 17.3457 68.6719 17.0117 68.3086 16.7539C67.9453 16.4961 67.4707 16.3086 66.8848 16.1914C66.2988 16.0625 65.5781 15.998 64.7227 15.998H55.3008V22.2207H64.7227C65.5781 22.2207 66.2988 22.1738 66.8848 22.0801C67.4707 21.9746 67.9453 21.8047 68.3086 21.5703C68.6719 21.3242 68.9297 21.0078 69.082 20.6211C69.2461 20.2344 69.3281 19.7598 69.3281 19.1973ZM81.334 35V10.8477H87.8555V35H81.334ZM122.045 33.3477C121.201 33.6992 120.352 34.0156 119.496 34.2969C118.641 34.5781 117.756 34.8184 116.842 35.0176C115.928 35.2285 114.961 35.3867 113.941 35.4922C112.934 35.5977 111.85 35.6504 110.689 35.6504C108.229 35.6504 105.961 35.3867 103.887 34.8594C101.824 34.332 100.043 33.541 98.543 32.4863C97.0547 31.4199 95.8945 30.0957 95.0625 28.5137C94.2305 26.9199 93.8145 25.0625 93.8145 22.9414C93.8145 20.8203 94.2305 18.9688 95.0625 17.3867C95.8945 15.793 97.0547 14.4688 98.543 13.4141C100.043 12.3477 101.824 11.5508 103.887 11.0234C105.961 10.4961 108.229 10.2324 110.689 10.2324C111.85 10.2324 112.934 10.2852 113.941 10.3906C114.961 10.4961 115.928 10.6543 116.842 10.8652C117.756 11.0645 118.641 11.3047 119.496 11.5859C120.352 11.8672 121.201 12.1836 122.045 12.5352V18.4062C121.377 18.043 120.674 17.6855 119.936 17.334C119.197 16.9707 118.383 16.6484 117.492 16.3672C116.602 16.0742 115.623 15.8398 114.557 15.6641C113.49 15.4766 112.289 15.3828 110.953 15.3828C108.902 15.3828 107.197 15.5938 105.838 16.0156C104.49 16.4375 103.412 17 102.604 17.7031C101.795 18.4062 101.227 19.2148 100.898 20.1289C100.57 21.0312 100.406 21.9688 100.406 22.9414C100.406 23.5859 100.477 24.2246 100.617 24.8574C100.758 25.4785 100.992 26.0703 101.32 26.6328C101.648 27.1836 102.076 27.6934 102.604 28.1621C103.131 28.6309 103.787 29.0352 104.572 29.375C105.357 29.7148 106.271 29.9844 107.314 30.1836C108.369 30.3711 109.582 30.4648 110.953 30.4648C112.289 30.4648 113.49 30.3828 114.557 30.2188C115.623 30.043 116.602 29.8145 117.492 29.5332C118.383 29.252 119.197 28.9355 119.936 28.584C120.674 28.2207 121.377 27.8516 122.045 27.4766V33.3477ZM151.066 35C150.949 33.6875 150.633 32.5391 150.117 31.5547C149.602 30.5586 148.951 29.7031 148.166 28.9883C147.393 28.2734 146.514 27.6816 145.529 27.2129C144.557 26.7441 143.555 26.375 142.523 26.1055C141.492 25.8242 140.461 25.6309 139.43 25.5254C138.41 25.4082 137.461 25.3496 136.582 25.3496H134.648V35H128.127V10.8477H134.648V20.1641H135.984C136.887 20.1641 137.83 20.0938 138.814 19.9531C139.799 19.8125 140.771 19.5898 141.732 19.2852C142.705 18.9805 143.637 18.5879 144.527 18.1074C145.418 17.627 146.215 17.041 146.918 16.3496C147.621 15.6582 148.207 14.8613 148.676 13.959C149.145 13.0449 149.438 12.0078 149.555 10.8477H156.199C156.082 12.125 155.824 13.2793 155.426 14.3105C155.039 15.3418 154.553 16.2676 153.967 17.0879C153.393 17.8965 152.748 18.6055 152.033 19.2148C151.318 19.8242 150.586 20.3516 149.836 20.7969C149.086 21.2305 148.336 21.5938 147.586 21.8867C146.848 22.168 146.156 22.3848 145.512 22.5371C146.332 22.666 147.182 22.8711 148.061 23.1523C148.951 23.4219 149.83 23.7852 150.697 24.2422C151.564 24.6875 152.391 25.2383 153.176 25.8945C153.973 26.5508 154.688 27.3184 155.32 28.1973C155.953 29.0762 156.48 30.0781 156.902 31.2031C157.324 32.3281 157.594 33.5938 157.711 35H151.066ZM169.84 24.6641C169.84 25.6719 169.934 26.498 170.121 27.1426C170.309 27.7754 170.613 28.2793 171.035 28.6543C171.457 29.0293 172.002 29.2871 172.67 29.4277C173.35 29.5684 174.182 29.6387 175.166 29.6387H187.541V35H173.83C171.932 35 170.314 34.8477 168.979 34.543C167.654 34.2266 166.57 33.7461 165.727 33.1016C164.883 32.4453 164.268 31.6191 163.881 30.623C163.506 29.627 163.318 28.4434 163.318 27.0723V10.8477H169.84V24.6641ZM219.533 33.8047C217.553 34.4609 215.572 34.9297 213.592 35.2109C211.623 35.5039 209.607 35.6504 207.545 35.6504C204.908 35.6504 202.559 35.3691 200.496 34.8066C198.445 34.2324 196.717 33.4062 195.311 32.3281C193.904 31.25 192.832 29.9316 192.094 28.373C191.355 26.8145 190.986 25.0508 190.986 23.082C190.986 21.2539 191.355 19.5605 192.094 18.002C192.844 16.4316 193.898 15.0723 195.258 13.9238C196.629 12.7637 198.281 11.8613 200.215 11.2168C202.148 10.5605 204.305 10.2324 206.684 10.2324C208.875 10.2324 210.879 10.5312 212.695 11.1289C214.523 11.7148 216.088 12.5879 217.389 13.748C218.701 14.9082 219.715 16.3379 220.43 18.0371C221.156 19.7363 221.52 21.6934 221.52 23.9082V25.5254H197.719C197.93 26.2871 198.275 26.9844 198.756 27.6172C199.248 28.25 199.91 28.7891 200.742 29.2344C201.574 29.6797 202.594 30.0254 203.801 30.2715C205.02 30.5176 206.473 30.6406 208.16 30.6406C209.355 30.6406 210.527 30.5703 211.676 30.4297C212.824 30.2773 213.896 30.084 214.893 29.8496C215.889 29.6035 216.785 29.334 217.582 29.041C218.391 28.748 219.041 28.4551 219.533 28.1621V33.8047ZM215.033 20.7441C214.975 20.1465 214.793 19.5312 214.488 18.8984C214.195 18.2539 213.727 17.6738 213.082 17.1582C212.438 16.6426 211.594 16.2207 210.551 15.8926C209.508 15.5527 208.207 15.3828 206.648 15.3828C205.184 15.3828 203.918 15.5645 202.852 15.9277C201.785 16.291 200.889 16.7422 200.162 17.2812C199.447 17.8203 198.891 18.4004 198.492 19.0215C198.094 19.6426 197.836 20.2168 197.719 20.7441H215.033Z"/>
</mask>
<path d="M75.9199 19.0918C75.9199 20.2988 75.7441 21.4121 75.3926 22.4316C75.041 23.4395 74.4727 24.3125 73.6875 25.0508C72.9141 25.7773 71.9062 26.3457 70.6641 26.7559C69.4219 27.166 67.9102 27.3711 66.1289 27.3711H55.3008V35H48.7793V10.8477H66.1289C67.9102 10.8477 69.4219 11.0527 70.6641 11.4629C71.9062 11.8613 72.9141 12.4297 73.6875 13.168C74.4727 13.8945 75.041 14.7617 75.3926 15.7695C75.7441 16.7773 75.9199 17.8848 75.9199 19.0918ZM69.3281 19.1973C69.3281 18.6348 69.2461 18.1543 69.082 17.7559C68.9297 17.3457 68.6719 17.0117 68.3086 16.7539C67.9453 16.4961 67.4707 16.3086 66.8848 16.1914C66.2988 16.0625 65.5781 15.998 64.7227 15.998H55.3008V22.2207H64.7227C65.5781 22.2207 66.2988 22.1738 66.8848 22.0801C67.4707 21.9746 67.9453 21.8047 68.3086 21.5703C68.6719 21.3242 68.9297 21.0078 69.082 20.6211C69.2461 20.2344 69.3281 19.7598 69.3281 19.1973ZM81.334 35V10.8477H87.8555V35H81.334ZM122.045 33.3477C121.201 33.6992 120.352 34.0156 119.496 34.2969C118.641 34.5781 117.756 34.8184 116.842 35.0176C115.928 35.2285 114.961 35.3867 113.941 35.4922C112.934 35.5977 111.85 35.6504 110.689 35.6504C108.229 35.6504 105.961 35.3867 103.887 34.8594C101.824 34.332 100.043 33.541 98.543 32.4863C97.0547 31.4199 95.8945 30.0957 95.0625 28.5137C94.2305 26.9199 93.8145 25.0625 93.8145 22.9414C93.8145 20.8203 94.2305 18.9688 95.0625 17.3867C95.8945 15.793 97.0547 14.4688 98.543 13.4141C100.043 12.3477 101.824 11.5508 103.887 11.0234C105.961 10.4961 108.229 10.2324 110.689 10.2324C111.85 10.2324 112.934 10.2852 113.941 10.3906C114.961 10.4961 115.928 10.6543 116.842 10.8652C117.756 11.0645 118.641 11.3047 119.496 11.5859C120.352 11.8672 121.201 12.1836 122.045 12.5352V18.4062C121.377 18.043 120.674 17.6855 119.936 17.334C119.197 16.9707 118.383 16.6484 117.492 16.3672C116.602 16.0742 115.623 15.8398 114.557 15.6641C113.49 15.4766 112.289 15.3828 110.953 15.3828C108.902 15.3828 107.197 15.5938 105.838 16.0156C104.49 16.4375 103.412 17 102.604 17.7031C101.795 18.4062 101.227 19.2148 100.898 20.1289C100.57 21.0312 100.406 21.9688 100.406 22.9414C100.406 23.5859 100.477 24.2246 100.617 24.8574C100.758 25.4785 100.992 26.0703 101.32 26.6328C101.648 27.1836 102.076 27.6934 102.604 28.1621C103.131 28.6309 103.787 29.0352 104.572 29.375C105.357 29.7148 106.271 29.9844 107.314 30.1836C108.369 30.3711 109.582 30.4648 110.953 30.4648C112.289 30.4648 113.49 30.3828 114.557 30.2188C115.623 30.043 116.602 29.8145 117.492 29.5332C118.383 29.252 119.197 28.9355 119.936 28.584C120.674 28.2207 121.377 27.8516 122.045 27.4766V33.3477ZM151.066 35C150.949 33.6875 150.633 32.5391 150.117 31.5547C149.602 30.5586 148.951 29.7031 148.166 28.9883C147.393 28.2734 146.514 27.6816 145.529 27.2129C144.557 26.7441 143.555 26.375 142.523 26.1055C141.492 25.8242 140.461 25.6309 139.43 25.5254C138.41 25.4082 137.461 25.3496 136.582 25.3496H134.648V35H128.127V10.8477H134.648V20.1641H135.984C136.887 20.1641 137.83 20.0938 138.814 19.9531C139.799 19.8125 140.771 19.5898 141.732 19.2852C142.705 18.9805 143.637 18.5879 144.527 18.1074C145.418 17.627 146.215 17.041 146.918 16.3496C147.621 15.6582 148.207 14.8613 148.676 13.959C149.145 13.0449 149.438 12.0078 149.555 10.8477H156.199C156.082 12.125 155.824 13.2793 155.426 14.3105C155.039 15.3418 154.553 16.2676 153.967 17.0879C153.393 17.8965 152.748 18.6055 152.033 19.2148C151.318 19.8242 150.586 20.3516 149.836 20.7969C149.086 21.2305 148.336 21.5938 147.586 21.8867C146.848 22.168 146.156 22.3848 145.512 22.5371C146.332 22.666 147.182 22.8711 148.061 23.1523C148.951 23.4219 149.83 23.7852 150.697 24.2422C151.564 24.6875 152.391 25.2383 153.176 25.8945C153.973 26.5508 154.688 27.3184 155.32 28.1973C155.953 29.0762 156.48 30.0781 156.902 31.2031C157.324 32.3281 157.594 33.5938 157.711 35H151.066ZM169.84 24.6641C169.84 25.6719 169.934 26.498 170.121 27.1426C170.309 27.7754 170.613 28.2793 171.035 28.6543C171.457 29.0293 172.002 29.2871 172.67 29.4277C173.35 29.5684 174.182 29.6387 175.166 29.6387H187.541V35H173.83C171.932 35 170.314 34.8477 168.979 34.543C167.654 34.2266 166.57 33.7461 165.727 33.1016C164.883 32.4453 164.268 31.6191 163.881 30.623C163.506 29.627 163.318 28.4434 163.318 27.0723V10.8477H169.84V24.6641ZM219.533 33.8047C217.553 34.4609 215.572 34.9297 213.592 35.2109C211.623 35.5039 209.607 35.6504 207.545 35.6504C204.908 35.6504 202.559 35.3691 200.496 34.8066C198.445 34.2324 196.717 33.4062 195.311 32.3281C193.904 31.25 192.832 29.9316 192.094 28.373C191.355 26.8145 190.986 25.0508 190.986 23.082C190.986 21.2539 191.355 19.5605 192.094 18.002C192.844 16.4316 193.898 15.0723 195.258 13.9238C196.629 12.7637 198.281 11.8613 200.215 11.2168C202.148 10.5605 204.305 10.2324 206.684 10.2324C208.875 10.2324 210.879 10.5312 212.695 11.1289C214.523 11.7148 216.088 12.5879 217.389 13.748C218.701 14.9082 219.715 16.3379 220.43 18.0371C221.156 19.7363 221.52 21.6934 221.52 23.9082V25.5254H197.719C197.93 26.2871 198.275 26.9844 198.756 27.6172C199.248 28.25 199.91 28.7891 200.742 29.2344C201.574 29.6797 202.594 30.0254 203.801 30.2715C205.02 30.5176 206.473 30.6406 208.16 30.6406C209.355 30.6406 210.527 30.5703 211.676 30.4297C212.824 30.2773 213.896 30.084 214.893 29.8496C215.889 29.6035 216.785 29.334 217.582 29.041C218.391 28.748 219.041 28.4551 219.533 28.1621V33.8047ZM215.033 20.7441C214.975 20.1465 214.793 19.5312 214.488 18.8984C214.195 18.2539 213.727 17.6738 213.082 17.1582C212.438 16.6426 211.594 16.2207 210.551 15.8926C209.508 15.5527 208.207 15.3828 206.648 15.3828C205.184 15.3828 203.918 15.5645 202.852 15.9277C201.785 16.291 200.889 16.7422 200.162 17.2812C199.447 17.8203 198.891 18.4004 198.492 19.0215C198.094 19.6426 197.836 20.2168 197.719 20.7441H215.033Z" fill="#E4FF37"/>
<path d="M75.3926 22.4316L76.3368 22.761L76.338 22.7576L75.3926 22.4316ZM73.6875 25.0508L74.3722 25.7796L74.3725 25.7793L73.6875 25.0508ZM55.3008 27.3711V26.3711H54.3008V27.3711H55.3008ZM55.3008 35V36H56.3008V35H55.3008ZM48.7793 35H47.7793V36H48.7793V35ZM48.7793 10.8477V9.84766H47.7793V10.8477H48.7793ZM70.6641 11.4629L70.3505 12.4125L70.3586 12.4151L70.6641 11.4629ZM73.6875 13.168L72.997 13.8913L73.0026 13.8967L73.0083 13.9019L73.6875 13.168ZM69.082 17.7559L68.1446 18.104L68.1507 18.1204L68.1574 18.1366L69.082 17.7559ZM66.8848 16.1914L66.6699 17.1681L66.6793 17.1701L66.6886 17.172L66.8848 16.1914ZM55.3008 15.998V14.998H54.3008V15.998H55.3008ZM55.3008 22.2207H54.3008V23.2207H55.3008V22.2207ZM66.8848 22.0801L67.0428 23.0675L67.0524 23.066L67.0619 23.0643L66.8848 22.0801ZM68.3086 21.5703L68.8507 22.4106L68.8602 22.4045L68.8694 22.3982L68.3086 21.5703ZM69.082 20.6211L68.1614 20.2305L68.1564 20.2425L68.1516 20.2546L69.082 20.6211ZM74.9199 19.0918C74.9199 20.201 74.7586 21.2027 74.4472 22.1056L76.338 22.7576C76.7297 21.6215 76.9199 20.3967 76.9199 19.0918H74.9199ZM74.4484 22.1023C74.1504 22.9566 73.6716 23.6931 73.0025 24.3223L74.3725 25.7793C75.2737 24.9319 75.9317 23.9223 76.3368 22.761L74.4484 22.1023ZM73.0028 24.3219C72.3573 24.9283 71.4858 25.4314 70.3505 25.8063L70.9776 27.7054C72.3267 27.26 73.4708 26.6263 74.3722 25.7796L73.0028 24.3219ZM70.3505 25.8063C69.2387 26.1734 67.8394 26.3711 66.1289 26.3711V28.3711C67.9809 28.3711 69.6051 28.1586 70.9776 27.7054L70.3505 25.8063ZM66.1289 26.3711H55.3008V28.3711H66.1289V26.3711ZM54.3008 27.3711V35H56.3008V27.3711H54.3008ZM55.3008 34H48.7793V36H55.3008V34ZM49.7793 35V10.8477H47.7793V35H49.7793ZM48.7793 11.8477H66.1289V9.84766H48.7793V11.8477ZM66.1289 11.8477C67.8394 11.8477 69.2387 12.0453 70.3505 12.4125L70.9776 10.5133C69.6051 10.0601 67.9809 9.84766 66.1289 9.84766V11.8477ZM70.3586 12.4151C71.488 12.7773 72.3544 13.2779 72.997 13.8913L74.378 12.4446C73.4737 11.5815 72.3245 10.9453 70.9695 10.5107L70.3586 12.4151ZM73.0083 13.9019C73.6736 14.5176 74.1508 15.246 74.4484 16.0989L76.3368 15.4402C75.9312 14.2775 75.2717 13.2715 74.3667 12.434L73.0083 13.9019ZM74.4484 16.0989C74.7585 16.988 74.9199 17.9824 74.9199 19.0918H76.9199C76.9199 17.7871 76.7298 16.5667 76.3368 15.4402L74.4484 16.0989ZM70.3281 19.1973C70.3281 18.5421 70.2332 17.9251 70.0067 17.3751L68.1574 18.1366C68.259 18.3835 68.3281 18.7274 68.3281 19.1973H70.3281ZM70.0195 17.4077C69.7959 16.8057 69.4112 16.3102 68.8873 15.9384L67.7298 17.5694C67.9325 17.7132 68.0635 17.8857 68.1446 18.104L70.0195 17.4077ZM68.8873 15.9384C68.3775 15.5766 67.76 15.3467 67.0809 15.2108L66.6886 17.172C67.1814 17.2705 67.5131 17.4156 67.7298 17.5694L68.8873 15.9384ZM67.0996 15.2148C66.4203 15.0653 65.6225 14.998 64.7227 14.998V16.998C65.5337 16.998 66.1773 17.0597 66.6699 17.1681L67.0996 15.2148ZM64.7227 14.998H55.3008V16.998H64.7227V14.998ZM54.3008 15.998V22.2207H56.3008V15.998H54.3008ZM55.3008 23.2207H64.7227V21.2207H55.3008V23.2207ZM64.7227 23.2207C65.6101 23.2207 66.3873 23.1724 67.0428 23.0675L66.7268 21.0926C66.2104 21.1753 65.5462 21.2207 64.7227 21.2207V23.2207ZM67.0619 23.0643C67.732 22.9436 68.3431 22.7381 68.8507 22.4106L67.7665 20.73C67.5475 20.8713 67.2094 21.0056 66.7076 21.0959L67.0619 23.0643ZM68.8694 22.3982C69.3898 22.0457 69.782 21.5726 70.0124 20.9876L68.1516 20.2546C68.0774 20.443 67.954 20.6027 67.7477 20.7424L68.8694 22.3982ZM70.0026 21.0116C70.2336 20.4672 70.3281 19.851 70.3281 19.1973H68.3281C68.3281 19.6686 68.2586 20.0016 68.1614 20.2305L70.0026 21.0116ZM81.334 35H80.334V36H81.334V35ZM81.334 10.8477V9.84766H80.334V10.8477H81.334ZM87.8555 10.8477H88.8555V9.84766H87.8555V10.8477ZM87.8555 35V36H88.8555V35H87.8555ZM82.334 35V10.8477H80.334V35H82.334ZM81.334 11.8477H87.8555V9.84766H81.334V11.8477ZM86.8555 10.8477V35H88.8555V10.8477H86.8555ZM87.8555 34H81.334V36H87.8555V34ZM122.045 33.3477L122.43 34.2707L123.045 34.0143V33.3477H122.045ZM116.842 35.0176L116.629 34.0404L116.617 34.0432L116.842 35.0176ZM113.941 35.4922L113.839 34.4975L113.837 34.4976L113.941 35.4922ZM103.887 34.8594L103.639 35.8282L103.64 35.8285L103.887 34.8594ZM98.543 32.4863L97.9605 33.2992L97.9678 33.3044L98.543 32.4863ZM95.0625 28.5137L94.176 28.9765L94.1774 28.9791L95.0625 28.5137ZM95.0625 17.3867L95.9476 17.8522L95.949 17.8495L95.0625 17.3867ZM98.543 13.4141L99.1212 14.23L99.1224 14.2291L98.543 13.4141ZM103.887 11.0234L103.64 10.0543L103.639 10.0546L103.887 11.0234ZM113.941 10.3906L113.837 11.3852L113.839 11.3853L113.941 10.3906ZM116.842 10.8652L116.617 11.8397L116.629 11.8423L116.842 10.8652ZM122.045 12.5352H123.045V11.8685L122.43 11.6121L122.045 12.5352ZM122.045 18.4062L121.567 19.2847L123.045 20.0884V18.4062H122.045ZM119.936 17.334L119.494 18.2313L119.506 18.2368L119.936 17.334ZM117.492 16.3672L117.18 17.3172L117.191 17.3208L117.492 16.3672ZM114.557 15.6641L114.383 16.649L114.394 16.6507L114.557 15.6641ZM105.838 16.0156L105.541 15.0606L105.539 15.0613L105.838 16.0156ZM100.898 20.1289L101.838 20.4707L101.84 20.4668L100.898 20.1289ZM100.617 24.8574L99.641 25.0744L99.6419 25.0782L100.617 24.8574ZM101.32 26.6328L100.456 27.1367L100.461 27.1446L101.32 26.6328ZM107.314 30.1836L107.127 31.1659L107.139 31.1682L107.314 30.1836ZM114.557 30.2188L114.709 31.2072L114.719 31.2054L114.557 30.2188ZM119.936 28.584L120.366 29.4869L120.377 29.4812L119.936 28.584ZM122.045 27.4766H123.045V25.7683L121.555 26.6046L122.045 27.4766ZM121.66 32.4246C120.84 32.7664 120.014 33.0738 119.184 33.3469L119.808 35.2469C120.689 34.9574 121.562 34.632 122.43 34.2707L121.66 32.4246ZM119.184 33.3469C118.362 33.617 117.511 33.8483 116.629 34.0405L117.055 35.9946C118.001 35.7884 118.919 35.5392 119.808 35.2469L119.184 33.3469ZM116.617 34.0432C115.747 34.244 114.821 34.3959 113.839 34.4975L114.044 36.4869C115.101 36.3776 116.109 36.213 117.067 35.992L116.617 34.0432ZM113.837 34.4976C112.869 34.599 111.82 34.6504 110.689 34.6504V36.6504C111.88 36.6504 112.999 36.5963 114.045 36.4868L113.837 34.4976ZM110.689 34.6504C108.299 34.6504 106.116 34.3943 104.133 33.8902L103.64 35.8285C105.806 36.3791 108.158 36.6504 110.689 36.6504V34.6504ZM104.134 33.8905C102.171 33.3885 100.504 32.643 99.1181 31.6683L97.9678 33.3044C99.5815 34.439 101.478 35.2756 103.639 35.8282L104.134 33.8905ZM99.1254 31.6735C97.7605 30.6954 96.7053 29.489 95.9476 28.0482L94.1774 28.9791C95.0837 30.7024 96.3489 32.1444 97.9605 33.2992L99.1254 31.6735ZM95.949 28.0509C95.2038 26.6236 94.8145 24.9303 94.8145 22.9414H92.8145C92.8145 25.1947 93.2571 27.2162 94.176 28.9765L95.949 28.0509ZM94.8145 22.9414C94.8145 20.9523 95.2039 19.2662 95.9476 17.8522L94.1774 16.9212C93.257 18.6713 92.8145 20.6883 92.8145 22.9414H94.8145ZM95.949 17.8495C96.7066 16.3983 97.7602 15.1944 99.1212 14.23L97.9648 12.5982C96.3492 13.7431 95.0825 15.1876 94.176 16.9239L95.949 17.8495ZM99.1224 14.2291C100.508 13.2441 102.173 12.4939 104.134 11.9923L103.639 10.0546C101.476 10.6077 99.5781 11.4512 97.9635 12.599L99.1224 14.2291ZM104.133 11.9926C106.116 11.4885 108.299 11.2324 110.689 11.2324V9.23242C108.158 9.23242 105.806 9.50366 103.64 10.0543L104.133 11.9926ZM110.689 11.2324C111.82 11.2324 112.869 11.2838 113.837 11.3852L114.045 9.39606C112.999 9.2865 111.88 9.23242 110.689 9.23242V11.2324ZM113.839 11.3853C114.821 11.4869 115.747 11.6388 116.617 11.8396L117.067 9.89084C116.109 9.66982 115.101 9.50526 114.044 9.39593L113.839 11.3853ZM116.629 11.8423C117.511 12.0345 118.362 12.2658 119.184 12.5359L119.808 10.636C118.919 10.3436 118.001 10.0944 117.055 9.88817L116.629 11.8423ZM119.184 12.5359C120.014 12.809 120.84 13.1164 121.66 13.4582L122.43 11.6121C121.562 11.2508 120.689 10.9254 119.808 10.636L119.184 12.5359ZM121.045 12.5352V18.4062H123.045V12.5352H121.045ZM122.523 17.5278C121.838 17.1553 121.119 16.7898 120.365 16.4311L119.506 18.2368C120.229 18.5813 120.916 18.9306 121.567 19.2847L122.523 17.5278ZM120.377 16.4367C119.588 16.0484 118.726 15.7081 117.793 15.4136L117.191 17.3208C118.04 17.5888 118.807 17.893 119.494 18.2312L120.377 16.4367ZM117.805 15.4173C116.858 15.106 115.829 14.8603 114.719 14.6774L114.394 16.6507C115.417 16.8194 116.345 17.0425 117.18 17.3171L117.805 15.4173ZM114.73 14.6792C113.595 14.4796 112.334 14.3828 110.953 14.3828V16.3828C112.244 16.3828 113.386 16.4735 114.383 16.649L114.73 14.6792ZM110.953 14.3828C108.842 14.3828 107.029 14.5989 105.541 15.0606L106.134 16.9707C107.366 16.5886 108.963 16.3828 110.953 16.3828V14.3828ZM105.539 15.0613C104.1 15.5119 102.887 16.131 101.947 16.9485L103.26 18.4577C103.937 17.869 104.881 17.3631 106.137 16.97L105.539 15.0613ZM101.947 16.9485C101.023 17.752 100.349 18.6998 99.9572 19.791L101.84 20.4668C102.104 19.7299 102.567 19.0605 103.26 18.4577L101.947 16.9485ZM99.9586 19.7872C99.5902 20.8005 99.4062 21.8537 99.4062 22.9414H101.406C101.406 22.0838 101.55 21.262 101.838 20.4706L99.9586 19.7872ZM99.4062 22.9414C99.4062 23.6593 99.4846 24.3707 99.641 25.0744L101.593 24.6405C101.468 24.0785 101.406 23.5126 101.406 22.9414H99.4062ZM99.6419 25.0782C99.8055 25.8011 100.078 26.4881 100.457 27.1367L102.184 26.1289C101.906 25.6525 101.71 25.156 101.593 24.6366L99.6419 25.0782ZM100.461 27.1446C100.847 27.7918 101.343 28.3795 101.939 28.9095L103.268 27.4147C102.809 27.0072 102.45 26.5754 102.179 26.121L100.461 27.1446ZM101.939 28.9095C102.561 29.462 103.312 29.9193 104.175 30.2927L104.969 28.4573C104.262 28.151 103.701 27.7997 103.268 27.4147L101.939 28.9095ZM104.175 30.2927C105.041 30.6677 106.028 30.956 107.127 31.1658L107.502 29.2014C106.515 29.0127 105.674 28.762 104.969 28.4573L104.175 30.2927ZM107.139 31.1682C108.265 31.3683 109.539 31.4648 110.953 31.4648V29.4648C109.625 29.4648 108.473 29.3739 107.489 29.199L107.139 31.1682ZM110.953 31.4648C112.329 31.4648 113.582 31.3805 114.709 31.2071L114.405 29.2304C113.399 29.3851 112.25 29.4648 110.953 29.4648V31.4648ZM114.719 31.2054C115.825 31.0231 116.851 30.7844 117.793 30.4868L117.191 28.5796C116.352 28.8445 115.421 29.0628 114.394 29.2321L114.719 31.2054ZM117.793 30.4868C118.722 30.1935 119.58 29.8608 120.365 29.4868L119.506 27.6811C118.814 28.0103 118.044 28.3104 117.191 28.5796L117.793 30.4868ZM120.377 29.4812C121.13 29.1106 121.85 28.733 122.534 28.3485L121.555 26.6046C120.904 26.9701 120.217 27.3309 119.494 27.6867L120.377 29.4812ZM121.045 27.4766V33.3477H123.045V27.4766H121.045ZM151.066 35L150.07 35.0889L150.152 36H151.066V35ZM150.117 31.5547L149.229 32.0144L149.231 32.0187L150.117 31.5547ZM148.166 28.9883L147.487 29.7227L147.493 29.7277L148.166 28.9883ZM145.529 27.2129L145.095 28.1137L145.099 28.1158L145.529 27.2129ZM142.523 26.1055L142.26 27.0703L142.271 27.073L142.523 26.1055ZM139.43 25.5254L139.315 26.5189L139.328 26.5202L139.43 25.5254ZM134.648 25.3496V24.3496H133.648V25.3496H134.648ZM134.648 35V36H135.648V35H134.648ZM128.127 35H127.127V36H128.127V35ZM128.127 10.8477V9.84766H127.127V10.8477H128.127ZM134.648 10.8477H135.648V9.84766H134.648V10.8477ZM134.648 20.1641H133.648V21.1641H134.648V20.1641ZM141.732 19.2852L141.433 18.3309L141.43 18.3319L141.732 19.2852ZM148.676 13.959L149.563 14.42L149.566 14.4153L148.676 13.959ZM149.555 10.8477V9.84766H148.651L148.56 10.7472L149.555 10.8477ZM156.199 10.8477L157.195 10.939L157.295 9.84766H156.199V10.8477ZM155.426 14.3105L154.493 13.9501L154.489 13.9594L155.426 14.3105ZM153.967 17.0879L153.153 16.5067L153.151 16.5089L153.967 17.0879ZM149.836 20.7969L150.336 21.6627L150.346 21.6567L149.836 20.7969ZM147.586 21.8867L147.942 22.8212L147.95 22.8182L147.586 21.8867ZM145.512 22.5371L145.282 21.5639L145.356 23.525L145.512 22.5371ZM148.061 23.1523L147.756 24.1048L147.763 24.1072L147.771 24.1095L148.061 23.1523ZM150.697 24.2422L150.231 25.1269L150.24 25.1318L150.697 24.2422ZM153.176 25.8945L152.534 26.6618L152.54 26.6665L153.176 25.8945ZM157.711 35V36H158.798L158.707 34.917L157.711 35ZM152.062 34.9111C151.936 33.4914 151.59 32.2111 151.003 31.0907L149.231 32.0187C149.676 32.867 149.963 33.8836 150.07 35.0889L152.062 34.9111ZM151.005 31.095C150.438 29.9996 149.717 29.0479 148.839 28.2488L147.493 29.7277C148.185 30.3584 148.765 31.1176 149.229 32.0144L151.005 31.095ZM148.845 28.2539C147.995 27.4683 147.031 26.8206 145.959 26.31L145.099 28.1158C145.996 28.5427 146.79 29.0786 147.487 29.7227L148.845 28.2539ZM145.963 26.312C144.933 25.8156 143.871 25.424 142.776 25.138L142.271 27.073C143.239 27.326 144.18 27.6726 145.095 28.1137L145.963 26.312ZM142.787 25.1407C141.704 24.8455 140.619 24.6418 139.531 24.5306L139.328 26.5202C140.303 26.6199 141.28 26.803 142.26 27.0702L142.787 25.1407ZM139.544 24.5319C138.493 24.4111 137.505 24.3496 136.582 24.3496V26.3496C137.417 26.3496 138.328 26.4053 139.315 26.5188L139.544 24.5319ZM136.582 24.3496H134.648V26.3496H136.582V24.3496ZM133.648 25.3496V35H135.648V25.3496H133.648ZM134.648 34H128.127V36H134.648V34ZM129.127 35V10.8477H127.127V35H129.127ZM128.127 11.8477H134.648V9.84766H128.127V11.8477ZM133.648 10.8477V20.1641H135.648V10.8477H133.648ZM134.648 21.1641H135.984V19.1641H134.648V21.1641ZM135.984 21.1641C136.939 21.1641 137.929 21.0897 138.956 20.9431L138.673 18.9632C137.731 19.0978 136.835 19.1641 135.984 19.1641V21.1641ZM138.956 20.9431C139.996 20.7946 141.022 20.5595 142.035 20.2384L141.43 18.3319C140.521 18.6202 139.602 18.8304 138.673 18.9632L138.956 20.9431ZM142.031 20.2394C143.064 19.9158 144.055 19.4985 145.002 18.9875L144.053 17.2273C143.218 17.6773 142.346 18.0451 141.433 18.3309L142.031 20.2394ZM145.002 18.9875C145.974 18.4635 146.847 17.8218 147.619 17.0626L146.217 15.6366C145.583 16.2602 144.862 16.7904 144.053 17.2273L145.002 18.9875ZM147.619 17.0626C148.4 16.2952 149.048 15.4127 149.563 14.42L147.788 13.498C147.367 14.31 146.843 15.0212 146.217 15.6366L147.619 17.0626ZM149.566 14.4153C150.098 13.3763 150.422 12.2158 150.55 10.9482L148.56 10.7472C148.453 11.7998 148.191 12.7136 147.786 13.5027L149.566 14.4153ZM149.555 11.8477H156.199V9.84766H149.555V11.8477ZM155.203 10.7563C155.093 11.9559 154.853 13.0177 154.493 13.9501L156.359 14.6709C156.795 13.5409 157.071 12.2941 157.195 10.939L155.203 10.7563ZM154.489 13.9594C154.131 14.9164 153.684 15.7636 153.153 16.5067L154.781 17.6691C155.422 16.7716 155.948 15.7672 156.362 14.6617L154.489 13.9594ZM153.151 16.5089C152.622 17.2539 152.033 17.9009 151.384 18.4538L152.682 19.9759C153.463 19.31 154.163 18.5391 154.782 17.6669L153.151 16.5089ZM151.384 18.4538C150.71 19.0292 150.023 19.5228 149.325 19.937L150.346 21.6567C151.149 21.1803 151.927 20.6192 152.682 19.9759L151.384 18.4538ZM149.335 19.9311C148.626 20.3413 147.922 20.682 147.222 20.9553L147.95 22.8182C148.75 22.5055 149.546 22.1196 150.336 21.6626L149.335 19.9311ZM147.23 20.9522C146.525 21.2207 145.876 21.4234 145.282 21.5639L145.742 23.5103C146.436 23.3461 147.17 23.1152 147.942 22.8212L147.23 20.9522ZM145.356 23.525C146.121 23.6451 146.92 23.8375 147.756 24.1048L148.365 22.1999C147.443 21.9047 146.543 21.6869 145.667 21.5492L145.356 23.525ZM147.771 24.1095C148.597 24.3596 149.417 24.698 150.231 25.1268L151.164 23.3575C150.243 22.8723 149.305 22.4842 148.35 22.1952L147.771 24.1095ZM150.24 25.1318C151.039 25.5416 151.803 26.0507 152.534 26.6618L153.817 25.1272C152.978 24.4259 152.09 23.8334 151.154 23.3526L150.24 25.1318ZM152.54 26.6665C153.267 27.2654 153.924 27.9691 154.509 28.7816L156.132 27.613C155.451 26.6676 154.678 25.8362 153.811 25.1226L152.54 26.6665ZM154.509 28.7816C155.085 29.5813 155.572 30.5032 155.966 31.5542L157.839 30.852C157.389 29.653 156.822 28.5711 156.132 27.613L154.509 28.7816ZM155.966 31.5542C156.351 32.5796 156.604 33.753 156.714 35.083L158.707 34.917C158.584 33.4345 158.298 32.0766 157.839 30.852L155.966 31.5542ZM157.711 34H151.066V36H157.711V34ZM170.121 27.1426L169.161 27.4219L169.162 27.4267L170.121 27.1426ZM172.67 29.4277L172.464 30.4063L172.467 30.407L172.67 29.4277ZM187.541 29.6387H188.541V28.6387H187.541V29.6387ZM187.541 35V36H188.541V35H187.541ZM168.979 34.543L168.746 35.5156L168.756 35.5179L168.979 34.543ZM165.727 33.1016L165.113 33.8909L165.12 33.8962L165.727 33.1016ZM163.881 30.623L162.945 30.9754L162.949 30.985L163.881 30.623ZM163.318 10.8477V9.84766H162.318V10.8477H163.318ZM169.84 10.8477H170.84V9.84766H169.84V10.8477ZM168.84 24.6641C168.84 25.7241 168.937 26.6534 169.161 27.4219L171.081 26.8632C170.93 26.3427 170.84 25.6197 170.84 24.6641H168.84ZM169.162 27.4267C169.394 28.2076 169.787 28.883 170.371 29.4017L171.7 27.9069C171.439 27.6756 171.224 27.3432 171.08 26.8585L169.162 27.4267ZM170.371 29.4017C170.947 29.9143 171.661 30.2373 172.464 30.4063L172.876 28.4492C172.343 28.3369 171.967 28.1443 171.7 27.9069L170.371 29.4017ZM172.467 30.407C173.235 30.5658 174.139 30.6387 175.166 30.6387V28.6387C174.224 28.6387 173.464 28.5709 172.873 28.4485L172.467 30.407ZM175.166 30.6387H187.541V28.6387H175.166V30.6387ZM186.541 29.6387V35H188.541V29.6387H186.541ZM187.541 34H173.83V36H187.541V34ZM173.83 34C171.98 34 170.442 33.8511 169.201 33.568L168.756 35.5179C170.187 35.8442 171.883 36 173.83 36V34ZM169.211 33.5703C167.986 33.2776 167.04 32.8462 166.334 32.3069L165.12 33.8962C166.101 34.646 167.323 35.1755 168.746 35.5156L169.211 33.5703ZM166.341 32.3122C165.639 31.767 165.134 31.0885 164.813 30.2611L162.949 30.985C163.401 32.1498 164.126 33.1236 165.113 33.8909L166.341 32.3122ZM164.817 30.2707C164.494 29.4145 164.318 28.356 164.318 27.0723H162.318C162.318 28.5307 162.517 29.8394 162.945 30.9754L164.817 30.2707ZM164.318 27.0723V10.8477H162.318V27.0723H164.318ZM163.318 11.8477H169.84V9.84766H163.318V11.8477ZM168.84 10.8477V24.6641H170.84V10.8477H168.84ZM219.533 33.8047L219.848 34.7539L220.533 34.5268V33.8047H219.533ZM213.592 35.2109L213.451 34.2208L213.445 34.2218L213.592 35.2109ZM200.496 34.8066L200.226 35.7696L200.233 35.7714L200.496 34.8066ZM192.094 18.002L191.191 17.571L191.19 17.5739L192.094 18.002ZM195.258 13.9238L195.903 14.6877L195.904 14.6872L195.258 13.9238ZM200.215 11.2168L200.531 12.1655L200.536 12.1637L200.215 11.2168ZM212.695 11.1289L212.383 12.0788L212.39 12.0812L212.695 11.1289ZM217.389 13.748L216.723 14.4943L216.726 14.4973L217.389 13.748ZM220.43 18.0371L219.508 18.4249L219.51 18.4303L220.43 18.0371ZM221.52 25.5254V26.5254H222.52V25.5254H221.52ZM197.719 25.5254V24.5254H196.404L196.755 25.7923L197.719 25.5254ZM198.756 27.6172L197.959 28.2219L197.967 28.2311L198.756 27.6172ZM203.801 30.2715L203.601 31.2513L203.603 31.2517L203.801 30.2715ZM211.676 30.4297L211.797 31.4223L211.807 31.421L211.676 30.4297ZM214.893 29.8496L215.122 30.8231L215.132 30.8204L214.893 29.8496ZM217.582 29.041L217.241 28.1008L217.237 28.1024L217.582 29.041ZM219.533 28.1621H220.533V26.4031L219.022 27.3028L219.533 28.1621ZM215.033 20.7441V21.7441H216.136L216.028 20.6466L215.033 20.7441ZM214.488 18.8984L213.578 19.3122L213.582 19.3223L213.587 19.3323L214.488 18.8984ZM210.551 15.8926L210.241 16.8434L210.251 16.8465L210.551 15.8926ZM200.162 17.2812L199.566 16.4781L199.56 16.4828L200.162 17.2812ZM197.719 20.7441L196.743 20.5272L196.472 21.7441H197.719V20.7441ZM219.219 32.8554C217.292 33.4937 215.37 33.9484 213.451 34.2209L213.732 36.201C215.774 35.911 217.813 35.4281 219.848 34.7539L219.219 32.8554ZM213.445 34.2218C211.526 34.5073 209.56 34.6504 207.545 34.6504V36.6504C209.655 36.6504 211.72 36.5005 213.739 36.2L213.445 34.2218ZM207.545 34.6504C204.977 34.6504 202.719 34.3763 200.759 33.8419L200.233 35.7714C202.398 36.362 204.839 36.6504 207.545 36.6504V34.6504ZM200.766 33.8437C198.813 33.297 197.206 32.5212 195.919 31.5345L194.702 33.1217C196.228 34.2913 198.077 35.1678 200.226 35.7696L200.766 33.8437ZM195.919 31.5345C194.635 30.5503 193.666 29.356 192.997 27.945L191.19 28.8011C191.998 30.5073 193.173 31.9497 194.702 33.1217L195.919 31.5345ZM192.997 27.945C192.331 26.5379 191.986 24.9237 191.986 23.082H189.986C189.986 25.1779 190.38 27.091 191.19 28.8011L192.997 27.945ZM191.986 23.082C191.986 21.3929 192.326 19.8468 192.997 18.43L191.19 17.5739C190.385 19.2742 189.986 21.1149 189.986 23.082H191.986ZM192.996 18.4329C193.684 16.9935 194.65 15.7468 195.903 14.6877L194.612 13.1599C193.147 14.3977 192.004 15.8698 191.191 17.571L192.996 18.4329ZM195.904 14.6872C197.166 13.6196 198.702 12.7752 200.531 12.1655L199.899 10.2681C197.86 10.9475 196.092 11.9078 194.612 13.1604L195.904 14.6872ZM200.536 12.1637C202.351 11.5479 204.396 11.2324 206.684 11.2324V9.23242C204.213 9.23242 201.946 9.57321 199.893 10.2698L200.536 12.1637ZM206.684 11.2324C208.784 11.2324 210.681 11.5188 212.383 12.0788L213.008 10.179C211.077 9.54372 208.966 9.23242 206.684 9.23242V11.2324ZM212.39 12.0812C214.099 12.6288 215.537 13.4364 216.723 14.4943L218.054 13.0018C216.639 11.7394 214.948 10.8009 213.001 10.1766L212.39 12.0812ZM216.726 14.4973C217.92 15.5528 218.848 16.8567 219.508 18.4249L221.351 17.6493C220.581 15.8191 219.482 14.2636 218.051 12.9988L216.726 14.4973ZM219.51 18.4303C220.174 19.9831 220.52 21.8022 220.52 23.9082H222.52C222.52 21.5845 222.138 19.4895 221.349 17.644L219.51 18.4303ZM220.52 23.9082V25.5254H222.52V23.9082H220.52ZM221.52 24.5254H197.719V26.5254H221.52V24.5254ZM196.755 25.7923C197 26.6768 197.403 27.4886 197.959 28.2219L199.552 27.0125C199.148 26.4801 198.859 25.8974 198.682 25.2585L196.755 25.7923ZM197.967 28.2311C198.558 28.9922 199.336 29.6162 200.27 30.116L201.214 28.3527C200.484 27.9619 199.938 27.5078 199.545 27.0032L197.967 28.2311ZM200.27 30.116C201.209 30.6186 202.326 30.9914 203.601 31.2513L204.001 29.2916C202.861 29.0594 201.939 28.7408 201.214 28.3527L200.27 30.116ZM203.603 31.2517C204.905 31.5147 206.428 31.6406 208.16 31.6406V29.6406C206.517 29.6406 205.134 29.5205 203.999 29.2913L203.603 31.2517ZM208.16 31.6406C209.395 31.6406 210.607 31.568 211.797 31.4223L211.554 29.4371C210.447 29.5726 209.316 29.6406 208.16 29.6406V31.6406ZM211.807 31.421C212.984 31.2649 214.089 31.0659 215.122 30.823L214.664 28.8762C213.704 29.1021 212.664 29.2898 211.544 29.4384L211.807 31.421ZM215.132 30.8204C216.157 30.5673 217.09 30.2875 217.927 29.9796L217.237 28.1024C216.481 28.3805 215.62 28.6398 214.653 28.8788L215.132 30.8204ZM217.923 29.9812C218.764 29.6763 219.479 29.3584 220.045 29.0214L219.022 27.3028C218.603 27.5518 218.017 27.8198 217.241 28.1008L217.923 29.9812ZM218.533 28.1621V33.8047H220.533V28.1621H218.533ZM216.028 20.6466C215.957 19.9142 215.736 19.1856 215.389 18.4646L213.587 19.3323C213.85 19.8769 213.993 20.3787 214.038 20.8417L216.028 20.6466ZM215.399 18.4846C215.031 17.675 214.454 16.9749 213.707 16.3773L212.457 17.9391C212.999 18.3728 213.36 18.8328 213.578 19.3122L215.399 18.4846ZM213.707 16.3773C212.94 15.7639 211.976 15.2925 210.851 14.9387L210.251 16.8465C211.212 17.1489 211.935 17.5213 212.457 17.9391L213.707 16.3773ZM210.861 14.9418C209.685 14.5588 208.272 14.3828 206.648 14.3828V16.3828C208.142 16.3828 209.33 16.5467 210.241 16.8434L210.861 14.9418ZM206.648 14.3828C205.105 14.3828 203.725 14.5737 202.529 14.9812L203.174 16.8743C204.111 16.5552 205.262 16.3828 206.648 16.3828V14.3828ZM202.529 14.9812C201.388 15.37 200.393 15.8644 199.566 16.4782L200.758 18.0843C201.384 17.62 202.183 17.212 203.174 16.8743L202.529 14.9812ZM199.56 16.4828C198.77 17.0784 198.125 17.7421 197.65 18.4815L199.334 19.5614C199.656 19.0587 200.124 18.5622 200.764 18.0797L199.56 16.4828ZM197.65 18.4815C197.21 19.1678 196.893 19.8516 196.743 20.5272L198.695 20.9611C198.779 20.582 198.977 20.1173 199.334 19.5614L197.65 18.4815ZM197.719 21.7441H215.033V19.7441H197.719V21.7441Z" fill="#007C5F" mask="url(#path-25-outside-1_180_309)"/>
</svg>
